<svg width="24" height="24" viewBox="0 0 24 24" fill="none" xmlns="http://www.w3.org/2000/svg">
<path fill-rule="evenodd" clip-rule="evenodd" d="M10.301 3.7882C9.99903 4.04842 9.63848 4.31923 9.2224 4.49138C8.81196 4.66121 8.36867 4.71886 7.97833 4.7442C7.72344 4.76075 7.43885 4.76516 7.17934 4.76917C7.05534 4.77109 6.93706 4.77293 6.83049 4.77595C6.04855 4.79814 5.65045 4.89428 5.43902 5.10571C5.2276 5.31713 5.13146 5.71524 5.10927 6.49718C5.10624 6.60374 5.10441 6.72202 5.10249 6.84602C5.09847 7.10553 5.09407 7.39012 5.07752 7.64501C5.05218 8.03535 4.99453 8.47863 4.8247 8.88908C4.65255 9.30516 4.38174 9.6657 4.12152 9.96771C3.94231 10.1757 3.73579 10.3911 3.54871 10.5862C3.4713 10.667 3.39721 10.7442 3.32976 10.8161C3.07855 11.0837 2.88458 11.3105 2.75257 11.5242C2.62395 11.7324 2.58331 11.8823 2.58331 12C2.58331 12.1176 2.62395 12.2675 2.75258 12.4758C2.88458 12.6895 3.07855 12.9163 3.32977 13.1839C3.39721 13.2557 3.47129 13.333 3.5487 13.4137C3.73579 13.6089 3.9423 13.8243 4.12151 14.0323C4.38174 14.3343 4.65254 14.6948 4.8247 15.1109C4.99452 15.5214 5.05218 15.9646 5.07752 16.355C5.09406 16.6099 5.09847 16.8945 5.10249 17.154C5.10441 17.278 5.10624 17.3962 5.10926 17.5028C5.13146 18.2848 5.2276 18.6829 5.43902 18.8943C5.65044 19.1057 6.04855 19.2019 6.83049 19.224C6.93706 19.2271 7.05532 19.2289 7.17932 19.2308C7.43883 19.2348 7.72343 19.2392 7.97832 19.2558C8.36866 19.2811 8.81195 19.3388 9.22239 19.5086C9.63847 19.6808 9.99902 19.9516 10.301 20.2118C10.509 20.391 10.7244 20.5975 10.9195 20.7846C11.0003 20.862 11.0776 20.9361 11.1494 21.0035C11.417 21.2548 11.6438 21.4487 11.8575 21.5807C12.0657 21.7094 12.2157 21.75 12.3333 21.75C12.4509 21.75 12.6008 21.7094 12.8091 21.5807C13.0228 21.4487 13.2496 21.2548 13.5172 21.0035C13.589 20.9361 13.6663 20.862 13.747 20.7846C13.9422 20.5975 14.1576 20.391 14.3656 20.2118C14.6676 19.9516 15.0281 19.6808 15.4442 19.5086C15.8547 19.3388 16.298 19.2811 16.6883 19.2558C16.9432 19.2393 17.2278 19.2348 17.4873 19.2308C17.6113 19.2289 17.7296 19.2271 17.8361 19.2241C18.6181 19.2019 19.0162 19.1057 19.2276 18.8943C19.439 18.6829 19.5352 18.2848 19.5574 17.5028C19.5604 17.3963 19.5622 17.278 19.5641 17.154C19.5682 16.8945 19.5726 16.6099 19.5891 16.355C19.6144 15.9647 19.6721 15.5214 19.8419 15.1109C20.0141 14.6948 20.2849 14.3343 20.5451 14.0323C20.7243 13.8243 20.9308 13.6089 21.1179 13.4138C21.1953 13.333 21.2694 13.2558 21.3369 13.1839C21.5881 12.9163 21.782 12.6895 21.9141 12.4758C22.0427 12.2676 22.0833 12.1177 22.0833 12C22.0833 11.8824 22.0427 11.7325 21.914 11.5242C21.782 11.3105 21.5881 11.0837 21.3369 10.8161C21.2694 10.7443 21.1953 10.667 21.1179 10.5863C20.9308 10.3911 20.7243 10.1757 20.5451 9.96773C20.2849 9.66572 20.0141 9.30517 19.8419 8.88909C19.6721 8.47864 19.6144 8.03536 19.5891 7.64502C19.5726 7.39013 19.5682 7.10553 19.5641 6.84602C19.5622 6.72202 19.5604 6.60375 19.5574 6.49718C19.5352 5.71524 19.439 5.31713 19.2276 5.10571C19.0162 4.89429 18.6181 4.79815 17.8361 4.77595C17.7296 4.77293 17.6113 4.7711 17.4873 4.76918C17.2278 4.76516 16.9432 4.76076 16.6883 4.74421C16.298 4.71887 15.8547 4.66121 15.4442 4.49139C15.0282 4.31923 14.6676 4.04842 14.3656 3.7882C14.1576 3.60899 13.9422 3.40248 13.7471 3.2154C13.6663 3.13798 13.5891 3.0639 13.5172 2.99645C13.2497 2.74523 13.0229 2.55127 12.8091 2.41926C12.6009 2.29063 12.451 2.25 12.3334 2.25C12.2157 2.25 12.0658 2.29063 11.8575 2.41926C11.6438 2.55127 11.417 2.74524 11.1494 2.99645C11.0776 3.0639 11.0003 3.13799 10.9196 3.2154C10.7244 3.40248 10.509 3.60899 10.301 3.7882ZM11.0036 1.03674C11.3697 0.8106 11.8159 0.625 12.3334 0.625C12.8508 0.625 13.297 0.810604 13.6631 1.03674C14.0238 1.25951 14.3495 1.54884 14.6295 1.81175C14.7294 1.90557 14.8219 1.99429 14.9103 2.07915C15.0893 2.25086 15.2518 2.40676 15.4263 2.55715C15.6792 2.775 15.8856 2.91539 16.0655 2.98984C16.23 3.05792 16.4633 3.10118 16.7936 3.12262C17.0113 3.13676 17.2208 3.13982 17.4521 3.1432C17.5862 3.14515 17.7276 3.14722 17.8822 3.15161C18.6027 3.17206 19.6533 3.2333 20.3767 3.95666C21.1 4.68002 21.1613 5.73057 21.1817 6.45108C21.1861 6.60574 21.1882 6.74714 21.1901 6.88118C21.1935 7.11255 21.1966 7.32198 21.2107 7.53975C21.2321 7.87002 21.2754 8.10328 21.3435 8.26781C21.4179 8.44777 21.5583 8.65418 21.7762 8.90703C21.9266 9.08157 22.0825 9.24405 22.2542 9.42302C22.339 9.51147 22.4277 9.60394 22.5216 9.70388C22.7845 9.98392 23.0738 10.3096 23.2966 10.6703C23.5227 11.0364 23.7083 11.4826 23.7083 12C23.7083 12.5174 23.5227 12.9637 23.2966 13.3298C23.0738 13.6904 22.7845 14.0161 22.5216 14.2962C22.4277 14.3961 22.339 14.4886 22.2542 14.577C22.0825 14.756 21.9266 14.9185 21.7762 15.093C21.5583 15.3458 21.4179 15.5522 21.3435 15.7322C21.2754 15.8967 21.2321 16.13 21.2107 16.4603C21.1966 16.678 21.1935 16.8874 21.1901 17.1188C21.1882 17.2528 21.1861 17.3943 21.1817 17.5489C21.1613 18.2694 21.1 19.32 20.3767 20.0433C19.6533 20.7667 18.6027 20.8279 17.8822 20.8484C17.7276 20.8528 17.5862 20.8549 17.4521 20.8568C17.2208 20.8602 17.0113 20.8632 16.7936 20.8774C16.4633 20.8988 16.23 20.9421 16.0655 21.0102C15.8855 21.0846 15.6791 21.225 15.4263 21.4429C15.2517 21.5933 15.0893 21.7491 14.9103 21.9209C14.8218 22.0057 14.7294 22.0944 14.6294 22.1883C14.3494 22.4512 14.0237 22.7405 13.6631 22.9633C13.2969 23.1894 12.8507 23.375 12.3333 23.375C11.8159 23.375 11.3696 23.1894 11.0035 22.9633C10.6429 22.7405 10.3172 22.4512 10.0371 22.1883C9.93721 22.0944 9.84474 22.0057 9.7563 21.9209C9.57733 21.7491 9.41485 21.5932 9.2403 21.4429C8.98747 21.225 8.78106 21.0846 8.60112 21.0102C8.43659 20.9421 8.20333 20.8988 7.87306 20.8774C7.6553 20.8632 7.44588 20.8602 7.21452 20.8568C7.08048 20.8548 6.93906 20.8528 6.78439 20.8484C6.06388 20.8279 5.01333 20.7667 4.28997 20.0433C3.56662 19.32 3.50537 18.2694 3.48492 17.5489C3.48053 17.3943 3.47846 17.2528 3.4765 17.1188C3.47312 16.8874 3.47007 16.678 3.45593 16.4602C3.43449 16.13 3.39122 15.8967 3.32315 15.7322C3.24869 15.5522 3.1083 15.3458 2.89045 15.093C2.74006 14.9184 2.58416 14.7559 2.41245 14.577C2.32759 14.4885 2.23887 14.3961 2.14505 14.2961C1.88214 14.0161 1.59281 13.6904 1.37005 13.3297C1.14391 12.9636 0.958313 12.5174 0.958313 12C0.958313 11.4826 1.14392 11.0363 1.37006 10.6702C1.59282 10.3096 1.88215 9.98386 2.14506 9.70383C2.23888 9.60389 2.3276 9.51143 2.41246 9.42299C2.58417 9.24402 2.74007 9.08153 2.89046 8.90699C3.10831 8.65416 3.2487 8.44775 3.32316 8.2678C3.39123 8.10327 3.4345 7.87001 3.45593 7.53974C3.47007 7.32198 3.47313 7.11256 3.47651 6.8812C3.47847 6.74715 3.48053 6.60574 3.48492 6.45108C3.50537 5.73057 3.56662 4.68002 4.28997 3.95666C5.01333 3.2333 6.06388 3.17205 6.78439 3.1516C6.93906 3.14721 7.08047 3.14515 7.21451 3.14319C7.44588 3.13981 7.6553 3.13675 7.87306 3.12262C8.20333 3.10118 8.4366 3.05791 8.60113 2.98984C8.78109 2.91538 8.9875 2.77499 9.24034 2.55713C9.41488 2.40675 9.57737 2.25085 9.75634 2.07914C9.84478 1.99428 9.93725 1.90556 10.0372 1.81174C10.3172 1.54883 10.6429 1.2595 11.0036 1.03674Z" fill="#021B79"/>
<path fill-rule="evenodd" clip-rule="evenodd" d="M17.3898 9.00149C17.6996 9.32608 17.6877 9.84039 17.3631 10.1502L11.4047 15.8377C11.0907 16.1374 10.5966 16.1374 10.2827 15.8377L7.30355 12.994C6.97896 12.6841 6.967 12.1698 7.27684 11.8452C7.58668 11.5206 8.10099 11.5087 8.42558 11.8185L10.8437 14.1268L16.2411 8.97477C16.5656 8.66493 17.08 8.6769 17.3898 9.00149Z" fill="#021B79"/>
</svg>
