<svg width="18" height="22" viewBox="0 0 18 22" fill="none" xmlns="http://www.w3.org/2000/svg">
<path d="M12.4183 11.9808C12.7356 11.6635 12.7356 11.149 12.4183 10.8317C12.101 10.5144 11.5865 10.5144 11.2692 10.8317L7.78125 14.3197L5.91827 12.4567C5.60097 12.1394 5.08653 12.1394 4.76923 12.4567C4.45192 12.774 4.45192 13.2885 4.76923 13.6058L7.20673 16.0433C7.52403 16.3606 8.03847 16.3606 8.35577 16.0433L12.4183 11.9808Z" fill="#021B79"/>
<path fill-rule="evenodd" clip-rule="evenodd" d="M1.6875 0.4375C0.790037 0.4375 0.0625 1.16504 0.0625 2.0625V19.9375C0.0625 20.835 0.790038 21.5625 1.6875 21.5625H16.3125C17.21 21.5625 17.9375 20.835 17.9375 19.9375V7.27405C17.9375 7.20883 17.9336 7.14402 17.9259 7.07993C17.934 7.03368 17.9383 6.98609 17.9383 6.9375C17.9383 6.66198 17.8012 6.41849 17.5914 6.27157C17.5513 6.22041 17.508 6.17144 17.4615 6.125L12.25 0.913452C12.2032 0.866626 12.1538 0.822953 12.1022 0.782569C11.9551 0.57385 11.7122 0.4375 11.4375 0.4375C11.3899 0.4375 11.3432 0.441599 11.2978 0.449462C11.2328 0.441533 11.1671 0.4375 11.101 0.4375H1.6875ZM12.25 3.21155L15.1635 6.125H12.25V3.21155ZM10.625 6.9375V2.0625L1.6875 2.0625V19.9375H16.3125V7.75H11.4375C10.9888 7.75 10.625 7.38623 10.625 6.9375Z" fill="#021B79"/>
</svg>
