<svg width="202" height="201" viewBox="0 0 202 201" fill="none" xmlns="http://www.w3.org/2000/svg">
<path d="M101 0.5C116.781 0.5 132.338 4.2349 146.399 11.3993C160.46 18.5638 172.626 28.9543 181.902 41.7215C191.178 54.4886 197.3 69.2698 199.769 84.8565C202.238 100.443 200.982 116.393 196.106 131.402L158.063 119.041C160.989 110.036 161.743 100.466 160.261 91.1139C158.78 81.7619 155.107 72.8932 149.541 65.2329C143.976 57.5726 136.676 51.3383 128.239 47.0396C119.803 42.7409 110.469 40.5 101 40.5L101 0.5Z" fill="#0575E6" stroke="white"/>
<path d="M196.106 131.402C189.58 151.486 176.863 168.989 159.779 181.402C142.694 193.815 122.118 200.5 101 200.5L101 160.5C113.671 160.5 126.016 156.489 136.267 149.041C146.518 141.593 154.148 131.092 158.063 119.041L196.106 131.402Z" fill="#E94136" stroke="white"/>
<path d="M101 200.5C79.8821 200.5 59.3062 193.814 42.2214 181.402C25.1367 168.989 12.4201 151.486 5.89431 131.402L43.9366 119.041C47.8521 131.092 55.482 141.593 65.7329 149.041C75.9837 156.489 88.3292 160.5 101 160.5L101 200.5Z" fill="#FDB022" stroke="white"/>
<path d="M5.89435 131.402C-0.631453 111.317 -0.63145 89.6826 5.89436 69.5983C12.4202 49.5139 25.1368 32.0111 42.2215 19.5983L65.7329 51.959C55.482 59.4066 47.8521 69.9083 43.9366 81.959C40.0211 94.0096 40.0211 106.99 43.9366 119.041L5.89435 131.402Z" fill="#178213" stroke="white"/>
<path d="M42.2215 19.5983C59.3063 7.18548 79.8821 0.49999 101 0.5L101 40.5C88.3293 40.5 75.9838 44.5113 65.7329 51.959L42.2215 19.5983Z" fill="#848899" stroke="white"/>
</svg>
