<svg width="14" height="15" viewBox="0 0 14 15" fill="none" xmlns="http://www.w3.org/2000/svg">
<path fill-rule="evenodd" clip-rule="evenodd" d="M4.1875 0.6875C4.1875 0.37684 3.93566 0.125 3.625 0.125C3.31434 0.125 3.0625 0.37684 3.0625 0.6875V1.25H1.375C0.75368 1.25 0.25 1.75368 0.25 2.375V13.625C0.25 14.2463 0.753679 14.75 1.375 14.75H12.625C13.2463 14.75 13.75 14.2463 13.75 13.625V2.375C13.75 1.75368 13.2463 1.25 12.625 1.25H10.9375V0.6875C10.9375 0.37684 10.6857 0.125 10.375 0.125C10.0643 0.125 9.8125 0.37684 9.8125 0.6875V1.25H4.1875V0.6875ZM1.375 2.375H3.0625V2.9375C3.0625 3.24816 3.31434 3.5 3.625 3.5C3.93566 3.5 4.1875 3.24816 4.1875 2.9375V2.375H9.8125V2.9375C9.8125 3.24816 10.0643 3.5 10.375 3.5C10.6857 3.5 10.9375 3.24816 10.9375 2.9375V2.375H12.625V4.625H1.375V2.375ZM1.375 5.75H12.625V13.625H1.375V5.75Z" fill="#021B79"/>
</svg>
