<svg width="18" height="20" viewBox="0 0 18 20" fill="none" xmlns="http://www.w3.org/2000/svg">
<path d="M6 10C5.58579 10 5.25 10.3358 5.25 10.75C5.25 11.1642 5.58579 11.5 6 11.5H12C12.4142 11.5 12.75 11.1642 12.75 10.75C12.75 10.3358 12.4142 10 12 10H6Z" fill="#0575E6"/>
<path d="M6 13C5.58579 13 5.25 13.3358 5.25 13.75C5.25 14.1642 5.58579 14.5 6 14.5H12C12.4142 14.5 12.75 14.1642 12.75 13.75C12.75 13.3358 12.4142 13 12 13H6Z" fill="#0575E6"/>
<path fill-rule="evenodd" clip-rule="evenodd" d="M2.25 0.25C1.42157 0.25 0.75 0.921574 0.75 1.75V18.25C0.75 19.0784 1.42157 19.75 2.25 19.75H15.75C16.5784 19.75 17.25 19.0784 17.25 18.25V6.56066C17.25 6.50046 17.2464 6.44064 17.2393 6.38147C17.2468 6.33879 17.2507 6.29485 17.2507 6.25C17.2507 5.99568 17.1242 5.77092 16.9306 5.6353C16.8935 5.58807 16.8535 5.54287 16.8107 5.5L12 0.68934C11.9568 0.646116 11.9112 0.605803 11.8635 0.568526C11.7278 0.375861 11.5036 0.25 11.25 0.25C11.206 0.25 11.1629 0.253783 11.1211 0.261042C11.0611 0.253723 11.0004 0.25 10.9393 0.25H2.25ZM12 2.81066L14.6893 5.5H12V2.81066ZM10.5 6.25V1.75L2.25 1.75V18.25H15.75V7H11.25C10.8358 7 10.5 6.66421 10.5 6.25Z" fill="#0575E6"/>
</svg>
