<svg width="18" height="18" viewBox="0 0 18 18" fill="none" xmlns="http://www.w3.org/2000/svg">
<path d="M9.75 0.75C9.75 0.335786 9.41421 0 9 0C8.58579 0 8.25 0.335786 8.25 0.75V9.43968L5.59276 6.78313C5.29983 6.49028 4.82496 6.49034 4.5321 6.78327C4.23925 7.0762 4.23931 7.55108 4.53224 7.84393L8.46974 11.7804C8.76262 12.0732 9.23738 12.0732 9.53026 11.7804L13.4678 7.84393C13.7607 7.55108 13.7608 7.0762 13.4679 6.78327C13.175 6.49034 12.7002 6.49028 12.4072 6.78313L9.75 9.43968V0.75Z" fill="#848899"/>
<path d="M1.5 11.25C1.5 10.8358 1.16421 10.5 0.75 10.5C0.335786 10.5 0 10.8358 0 11.25V16.5C0 16.8978 0.158035 17.2794 0.43934 17.5607C0.720645 17.842 1.10218 18 1.5 18H16.5C16.8978 18 17.2794 17.842 17.5607 17.5607C17.842 17.2794 18 16.8978 18 16.5V11.25C18 10.8358 17.6642 10.5 17.25 10.5C16.8358 10.5 16.5 10.8358 16.5 11.25V16.5H1.5V11.25Z" fill="#848899"/>
</svg>
