<svg width="19" height="19" viewBox="0 0 19 19" fill="none" xmlns="http://www.w3.org/2000/svg">
<path fill-rule="evenodd" clip-rule="evenodd" d="M15.5303 0.46967C15.2374 0.176777 14.7626 0.176777 14.4697 0.46967L5.46967 9.46967C5.32902 9.61032 5.25 9.80109 5.25 10V13C5.25 13.4142 5.58579 13.75 6 13.75H9C9.19891 13.75 9.38968 13.671 9.53033 13.5303L18.5303 4.53033C18.8232 4.23744 18.8232 3.76256 18.5303 3.46967L15.5303 0.46967ZM6.75 12.25V10.3107L12.75 4.31066L14.6893 6.25L8.68934 12.25H6.75ZM13.8107 3.25L15.75 5.18934L16.9393 4L15 2.06066L13.8107 3.25Z" fill="#00073A"/>
<path d="M1.5 1C1.10217 1 0.720644 1.15804 0.43934 1.43934C0.158036 1.72064 0 2.10217 0 2.5V17.5C0 17.8978 0.158035 18.2794 0.43934 18.5607C0.720645 18.842 1.10218 19 1.5 19H16.5C16.8978 19 17.2794 18.842 17.5607 18.5607C17.842 18.2794 18 17.8978 18 17.5V9.25C18 8.83579 17.6642 8.5 17.25 8.5C16.8358 8.5 16.5 8.83579 16.5 9.25V17.5H1.5L1.5 2.5L9.75 2.5C10.1642 2.5 10.5 2.16421 10.5 1.75C10.5 1.33579 10.1642 1 9.75 1H1.5Z" fill="#00073A"/>
</svg>
