<svg width="96" height="24" viewBox="0 0 96 24" fill="none" xmlns="http://www.w3.org/2000/svg">
<path d="M18.6242 0.226415L18.818 6.0283H18.0431C17.8771 4.75472 17.545 3.70755 16.9915 2.88679C16.438 2.06604 15.8845 1.5283 15.3034 1.33019C14.7223 1.13208 13.6983 1.01887 12.3146 1.01887H7.88684V10.8679H10.0177C11.4014 10.8679 12.3146 10.6415 12.7574 10.1604C13.2002 9.67925 13.4493 8.74528 13.4493 7.30189H14.2795V15.4811H13.4493C13.4493 14.4906 13.3386 13.6981 13.1449 13.1321C12.9511 12.566 12.6467 12.1698 12.287 11.9434C11.8995 11.7453 11.1523 11.6321 10.0454 11.6321H7.91452V17.4057C7.91452 19.2453 7.96986 20.434 8.05289 21C8.13591 21.566 8.3573 21.9906 8.74473 22.2736C9.10449 22.5566 9.79633 22.6981 10.8479 22.6981H11.6228V23.4906H0.968414V22.6981H1.66026C2.62884 22.6981 3.29301 22.5849 3.68044 22.3302C4.06787 22.0755 4.28926 21.6792 4.39995 21.1698C4.51065 20.6321 4.566 19.4151 4.566 17.4623V6.0283C4.566 4.18868 4.51065 2.9717 4.39995 2.43396C4.28926 1.89623 4.06787 1.5283 3.73579 1.33019C3.4037 1.13208 2.65651 1.01887 1.49421 1.01887H1.07911V0.226415H18.6242Z" fill="url(#paint0_linear_248_1409)"/>
<path d="M37.2763 0.226415H44.8589V1.01887C43.8627 1.07547 43.1155 1.33019 42.6174 1.72642C42.1192 2.12264 41.8148 2.57547 41.7041 3.0566C41.5934 3.53774 41.5381 4.5 41.5381 5.91509V13.6415C41.5381 15.6226 41.4551 17.0943 41.3167 18.0566C41.1783 19.0189 40.7355 19.9528 40.016 20.8868C39.2965 21.8208 38.2726 22.5566 36.9719 23.0943C35.6713 23.6321 34.1492 23.9151 32.4611 23.9151C30.4409 23.9151 28.7252 23.5755 27.3138 22.8679C25.9024 22.1604 24.9062 21.2547 24.325 20.1509C23.7162 19.0472 23.4395 17.5472 23.4395 15.6792L23.4671 13.3019V6.0283C23.4671 4.18868 23.4118 2.9717 23.3011 2.43396C23.1904 1.89623 22.969 1.5283 22.6369 1.33019C22.3048 1.13208 21.5577 1.01887 20.3954 1.01887H19.8696V0.226415H30.2472V1.01887H29.8044C28.6975 1.01887 27.9503 1.10377 27.6182 1.30189C27.2584 1.5 27.0371 1.83962 26.9264 2.34906C26.8157 2.85849 26.7603 4.07547 26.7603 6.0283V13.3585C26.7603 15.9057 26.871 17.6887 27.0924 18.7642C27.3138 19.8396 27.978 20.7453 29.0296 21.5377C30.0812 22.3302 31.4925 22.7264 33.2636 22.7264C34.6473 22.7264 35.9203 22.4717 37.0549 21.934C38.1896 21.3962 39.0198 20.7453 39.5732 19.9528C40.1267 19.1604 40.4588 18.3396 40.5972 17.4906C40.7079 16.6415 40.7909 15.3396 40.7909 13.5283V5.60377C40.7909 4.30189 40.7079 3.36792 40.5695 2.85849C40.4311 2.32075 40.099 1.92453 39.6286 1.61321C39.1581 1.30189 38.3833 1.10377 37.3594 1.04717V0.226415H37.2763Z" fill="url(#paint1_linear_248_1409)"/>
<path d="M66.8872 24L50.8088 2.20755V18.3396C50.8088 19.6698 50.8641 20.5472 51.0025 20.9717C51.1409 21.3962 51.5006 21.7925 52.1095 22.1321C52.7183 22.5 53.6038 22.6698 54.8215 22.6698V23.4623H46.3533V22.6698C47.4326 22.5849 48.2628 22.3868 48.8439 22.0755C49.4251 21.7642 49.7572 21.3962 49.8679 21.0283C49.9786 20.6604 50.0339 19.7547 50.0339 18.3679V6.0283C50.0339 4.24528 49.9509 3.0566 49.7849 2.43396C49.6188 1.83962 49.3698 1.4434 49.01 1.27358C48.6502 1.10377 47.8754 1.01887 46.6577 1.01887V0.226415H53.3548L66.8042 18.3962V4.5283C66.8042 3.50943 66.6935 2.77358 66.4998 2.37736C66.3061 1.95283 65.8633 1.64151 65.2268 1.38679C64.5903 1.13208 63.8154 1.01887 62.9299 1.01887V0.226415H71.1766V1.01887C70.2081 1.10377 69.4609 1.27358 68.9074 1.58491C68.3539 1.86792 67.9942 2.23585 67.8558 2.66038C67.7174 3.08491 67.6344 3.79245 67.6344 4.78302V24H66.8872Z" fill="url(#paint2_linear_248_1409)"/>
<path d="M72.4773 0.424528L76.2132 0.226415C79.3404 0.0566037 81.4436 0 82.5229 0C85.8991 0 88.5281 0.537736 90.4099 1.58491C92.2917 2.63208 93.7031 4.04717 94.6163 5.85849C95.5295 7.66981 96 9.73585 96 12.0849C96 13.783 95.7509 15.3396 95.2528 16.7547C94.7547 18.1698 94.0628 19.3302 93.1773 20.2641C92.2917 21.1981 91.2954 21.9057 90.1331 22.3868C88.9708 22.8679 87.8916 23.1792 86.84 23.2924C85.7884 23.4057 84.3493 23.4623 82.4398 23.4623H72.3666V22.6698H73.3075C74.2761 22.6698 74.9403 22.5566 75.3277 22.3019C75.7151 22.0472 75.9365 21.6509 76.0472 21.1415C76.1579 20.6038 76.2132 19.3868 76.2132 17.434V6.22641C76.2132 4.38679 76.1579 3.16981 76.0472 2.63208C75.9365 2.09434 75.7151 1.72641 75.383 1.5283C75.0509 1.33019 74.3038 1.21698 73.1415 1.21698H72.4773V0.424528ZM79.4788 0.90566V16.4434C79.4788 18.7358 79.5341 20.2075 79.6171 20.8868C79.7001 21.5377 79.9492 22.0189 80.3643 22.2736C80.7794 22.5283 81.665 22.6698 83.021 22.6698C84.9858 22.6698 86.6186 22.3868 87.8916 21.8491C89.1646 21.283 90.2162 20.2075 91.0741 18.566C91.9319 16.9245 92.347 14.8585 92.347 12.3396C92.347 10.3868 92.098 8.63207 91.5999 7.07547C91.1017 5.54717 90.3822 4.27358 89.469 3.31132C88.5281 2.34906 87.5041 1.69811 86.3972 1.33019C85.2626 0.990566 83.8235 0.820755 82.0524 0.820755C81.2222 0.820755 80.3643 0.849056 79.4788 0.90566Z" fill="url(#paint3_linear_248_1409)"/>
<defs>
<linearGradient id="paint0_linear_248_1409" x1="112.204" y1="1.05283e-07" x2="109.39" y2="23.4305" gradientUnits="userSpaceOnUse">
<stop stop-color="#0575E6"/>
<stop offset="1" stop-color="#021B79"/>
</linearGradient>
<linearGradient id="paint1_linear_248_1409" x1="112.204" y1="1.05283e-07" x2="109.39" y2="23.4305" gradientUnits="userSpaceOnUse">
<stop stop-color="#0575E6"/>
<stop offset="1" stop-color="#021B79"/>
</linearGradient>
<linearGradient id="paint2_linear_248_1409" x1="112.204" y1="1.05283e-07" x2="109.39" y2="23.4305" gradientUnits="userSpaceOnUse">
<stop stop-color="#0575E6"/>
<stop offset="1" stop-color="#021B79"/>
</linearGradient>
<linearGradient id="paint3_linear_248_1409" x1="112.204" y1="1.05283e-07" x2="109.39" y2="23.4305" gradientUnits="userSpaceOnUse">
<stop stop-color="#0575E6"/>
<stop offset="1" stop-color="#021B79"/>
</linearGradient>
</defs>
</svg>
