<svg width="493" height="225" viewBox="0 0 493 225" fill="none" xmlns="http://www.w3.org/2000/svg">
<path d="M3.88636 12.1193C3.49716 12.1136 3.11364 12.0426 2.7358 11.9062C2.3608 11.7699 2.01989 11.5426 1.71307 11.2244C1.40625 10.9062 1.16051 10.4787 0.975852 9.94176C0.794034 9.40483 0.703125 8.73437 0.703125 7.9304C0.703125 7.16903 0.778409 6.4929 0.928977 5.90199C1.08239 5.31108 1.30256 4.8125 1.58949 4.40625C1.87642 3.99716 2.22301 3.68608 2.62926 3.47301C3.03551 3.25994 3.49148 3.15341 3.99716 3.15341C4.51705 3.15341 4.97869 3.25568 5.3821 3.46023C5.78551 3.66477 6.11222 3.94744 6.36222 4.30824C6.61506 4.66903 6.77557 5.07955 6.84375 5.53977H5.54403C5.45597 5.17614 5.28125 4.87926 5.01989 4.64915C4.75852 4.41903 4.41761 4.30398 3.99716 4.30398C3.35795 4.30398 2.85938 4.58239 2.50142 5.1392C2.14631 5.69602 1.96733 6.47017 1.96449 7.46165H2.02841C2.17898 7.21449 2.36364 7.00426 2.58239 6.83097C2.80398 6.65483 3.05114 6.51989 3.32386 6.42614C3.59943 6.32955 3.8892 6.28125 4.19318 6.28125C4.69886 6.28125 5.15625 6.40483 5.56534 6.65199C5.97727 6.89631 6.3054 7.23437 6.54972 7.66619C6.79403 8.09801 6.91619 8.59233 6.91619 9.14915C6.91619 9.70597 6.78977 10.2102 6.53693 10.6619C6.28693 11.1136 5.93466 11.4716 5.48011 11.7358C5.02557 11.9972 4.49432 12.125 3.88636 12.1193ZM3.8821 11.0114C4.21733 11.0114 4.51705 10.929 4.78125 10.7642C5.04545 10.5994 5.25426 10.3778 5.40767 10.0994C5.56108 9.82102 5.63778 9.50994 5.63778 9.16619C5.63778 8.83097 5.5625 8.52557 5.41193 8.25C5.2642 7.97443 5.05966 7.75568 4.7983 7.59375C4.53977 7.43182 4.24432 7.35085 3.91193 7.35085C3.65909 7.35085 3.42472 7.39915 3.20881 7.49574C2.99574 7.59233 2.80824 7.72585 2.64631 7.89631C2.48438 8.06676 2.35653 8.26278 2.26278 8.48438C2.17188 8.70312 2.12642 8.93466 2.12642 9.17898C2.12642 9.50568 2.2017 9.80824 2.35227 10.0866C2.50568 10.3651 2.71449 10.5895 2.97869 10.7599C3.24574 10.9276 3.54688 11.0114 3.8821 11.0114ZM8.58771 3.27273H10.1857L12.9641 10.0568H13.0664L15.8448 3.27273H17.4428V12H16.19V5.68466H16.109L13.5352 11.9872H12.4954L9.92152 5.6804H9.84055V12H8.58771V3.27273Z" fill="#848899"/>
<path d="M3.72017 48.9191C3.18608 48.9191 2.70597 48.8169 2.27983 48.6123C1.85653 48.4049 1.51847 48.1208 1.26562 47.76C1.01278 47.3992 0.877841 46.9873 0.860795 46.5242H2.1392C2.17045 46.8992 2.33665 47.2075 2.63778 47.449C2.93892 47.6904 3.29972 47.8112 3.72017 47.8112C4.0554 47.8112 4.35227 47.7345 4.6108 47.5811C4.87216 47.4248 5.0767 47.2103 5.22443 46.9376C5.375 46.6649 5.45028 46.3538 5.45028 46.0044C5.45028 45.6492 5.37358 45.3325 5.22017 45.0541C5.06676 44.7757 4.85511 44.5569 4.58523 44.3978C4.31818 44.2387 4.01136 44.1578 3.66477 44.1549C3.40057 44.1549 3.13494 44.2004 2.8679 44.2913C2.60085 44.3822 2.38494 44.5015 2.22017 44.6492L1.0142 44.4703L1.50426 40.0725H6.30256V41.2018H2.59943L2.32244 43.6436H2.37358C2.54403 43.4788 2.76989 43.341 3.05114 43.2302C3.33523 43.1194 3.6392 43.064 3.96307 43.064C4.49432 43.064 4.96733 43.1904 5.3821 43.4433C5.79972 43.6961 6.12784 44.0413 6.36648 44.4788C6.60795 44.9134 6.72727 45.4134 6.72443 45.9788C6.72727 46.5441 6.59943 47.0484 6.34091 47.4916C6.08523 47.9347 5.73011 48.2842 5.27557 48.5399C4.82386 48.7927 4.3054 48.9191 3.72017 48.9191ZM8.40021 40.0725H9.99822L12.7766 46.8566H12.8789L15.6573 40.0725H17.2553V48.7998H16.0025V42.4845H15.9215L13.3477 48.787H12.3079L9.73402 42.4802H9.65305V48.7998H8.40021V40.0725Z" fill="#848899"/>
<path d="M0.65625 83.8956V82.8302L4.42756 76.8728H5.26705V78.441H4.73438L2.03693 82.7109V82.7791H7.20597V83.8956H0.65625ZM4.79403 85.6001V83.5717L4.80256 83.0859V76.8728H6.05114V85.6001H4.79403ZM8.81037 76.8728H10.4084L13.1868 83.6569H13.2891L16.0675 76.8728H17.6655V85.6001H16.4126V79.2848H16.3317L13.7578 85.5873H12.718L10.1442 79.2805H10.0632V85.6001H8.81037V76.8728Z" fill="#848899"/>
<path d="M3.87784 122.519C3.29261 122.519 2.76989 122.418 2.30966 122.217C1.85227 122.015 1.49006 121.735 1.22301 121.377C0.958807 121.016 0.816761 120.599 0.796875 120.124H2.13494C2.15199 120.383 2.23864 120.607 2.39489 120.798C2.55398 120.985 2.76136 121.13 3.01705 121.232C3.27273 121.335 3.55682 121.386 3.86932 121.386C4.21307 121.386 4.51705 121.326 4.78125 121.207C5.0483 121.087 5.2571 120.921 5.40767 120.708C5.55824 120.492 5.63352 120.244 5.63352 119.962C5.63352 119.67 5.55824 119.413 5.40767 119.191C5.25994 118.967 5.04261 118.791 4.75568 118.663C4.47159 118.535 4.12784 118.471 3.72443 118.471H2.98722V117.397H3.72443C4.0483 117.397 4.33239 117.339 4.5767 117.222C4.82386 117.106 5.01705 116.944 5.15625 116.737C5.29545 116.526 5.36506 116.281 5.36506 115.999C5.36506 115.729 5.30398 115.495 5.18182 115.296C5.0625 115.095 4.89205 114.937 4.67045 114.823C4.4517 114.71 4.19318 114.653 3.89489 114.653C3.6108 114.653 3.34517 114.705 3.09801 114.81C2.85369 114.913 2.65483 115.06 2.50142 115.254C2.34801 115.444 2.26563 115.673 2.25426 115.94H0.980114C0.994318 115.468 1.13352 115.053 1.39773 114.695C1.66477 114.337 2.01705 114.058 2.45455 113.856C2.89205 113.654 3.37784 113.553 3.91193 113.553C4.47159 113.553 4.95455 113.663 5.3608 113.881C5.76989 114.097 6.08523 114.386 6.30682 114.746C6.53125 115.107 6.64205 115.502 6.6392 115.931C6.64205 116.42 6.50568 116.835 6.23011 117.175C5.95739 117.516 5.59375 117.745 5.1392 117.862V117.93C5.71875 118.018 6.16761 118.248 6.4858 118.62C6.80682 118.992 6.96591 119.454 6.96307 120.005C6.96591 120.485 6.83239 120.916 6.5625 121.296C6.29545 121.677 5.9304 121.977 5.46733 122.195C5.00426 122.411 4.47443 122.519 3.87784 122.519ZM8.69318 113.673H10.2912L13.0696 120.457H13.1719L15.9503 113.673H17.5483V122.4H16.2955V116.085H16.2145L13.6406 122.387H12.6009L10.027 116.08H9.94602V122.4H8.69318V113.673Z" fill="#848899"/>
<path d="M0.839489 159.2V158.246L3.79261 155.186C4.10795 154.854 4.3679 154.562 4.57244 154.312C4.77983 154.06 4.93466 153.82 5.03693 153.592C5.1392 153.365 5.19034 153.123 5.19034 152.868C5.19034 152.578 5.12216 152.328 4.9858 152.118C4.84943 151.905 4.66335 151.741 4.42756 151.628C4.19176 151.511 3.92614 151.453 3.63068 151.453C3.31818 151.453 3.04545 151.517 2.8125 151.645C2.57955 151.773 2.40057 151.953 2.27557 152.186C2.15057 152.419 2.08807 152.692 2.08807 153.004H0.830966C0.830966 152.473 0.953125 152.008 1.19744 151.611C1.44176 151.213 1.77699 150.905 2.20312 150.686C2.62926 150.464 3.11364 150.354 3.65625 150.354C4.20455 150.354 4.6875 150.463 5.10511 150.682C5.52557 150.898 5.85369 151.193 6.08949 151.568C6.32528 151.94 6.44318 152.361 6.44318 152.829C6.44318 153.153 6.3821 153.47 6.25994 153.78C6.14063 154.089 5.93182 154.435 5.63352 154.815C5.33523 155.193 4.92045 155.652 4.3892 156.192L2.65483 158.007V158.071H6.58381V159.2H0.839489ZM8.31818 150.473H9.91619L12.6946 157.257H12.7969L15.5753 150.473H17.1733V159.2H15.9205V152.885H15.8395L13.2656 159.187H12.2259L9.65199 152.881H9.57102V159.2H8.31818V150.473Z" fill="#848899"/>
<path d="M4.15057 187.273V196H2.82955V188.594H2.77841L0.690341 189.957V188.696L2.8679 187.273H4.15057ZM6.63068 187.273H8.22869L11.0071 194.057H11.1094L13.8878 187.273H15.4858V196H14.233V189.685H14.152L11.5781 195.987H10.5384L7.96449 189.68H7.88352V196H6.63068V187.273Z" fill="#848899"/>
<rect x="41" y="6" width="452" height="1" fill="#EFEFEF"/>
<rect x="41" y="43.3999" width="452" height="1" fill="#EFEFEF"/>
<rect x="41" y="80.7998" width="452" height="1" fill="#EFEFEF"/>
<rect x="41" y="118.2" width="452" height="1" fill="#EFEFEF"/>
<rect x="41" y="155.6" width="452" height="1" fill="#EFEFEF"/>
<rect x="41" y="193" width="452" height="1" fill="#EFEFEF"/>
<path d="M58 174L145 148L226 152L316 98L394 73L482 19" stroke="#0575E6" stroke-width="3" stroke-linecap="round" stroke-linejoin="round"/>
<path d="M44.8778 221.145C44.2045 221.142 43.6293 220.964 43.152 220.612C42.6747 220.26 42.3097 219.747 42.0568 219.074C41.804 218.401 41.6776 217.589 41.6776 216.641C41.6776 215.695 41.804 214.886 42.0568 214.216C42.3125 213.545 42.679 213.034 43.1562 212.682C43.6364 212.33 44.2102 212.153 44.8778 212.153C45.5455 212.153 46.1179 212.331 46.5952 212.686C47.0724 213.038 47.4375 213.55 47.6903 214.22C47.946 214.888 48.0739 215.695 48.0739 216.641C48.0739 217.592 47.9474 218.405 47.6946 219.078C47.4418 219.749 47.0767 220.261 46.5994 220.616C46.1222 220.969 45.5483 221.145 44.8778 221.145ZM44.8778 220.007C45.4688 220.007 45.9304 219.719 46.2628 219.142C46.598 218.565 46.7656 217.732 46.7656 216.641C46.7656 215.916 46.6889 215.304 46.5355 214.804C46.3849 214.301 46.1676 213.92 45.8835 213.662C45.6023 213.401 45.267 213.27 44.8778 213.27C44.2898 213.27 43.8281 213.56 43.4929 214.139C43.1577 214.719 42.9886 215.553 42.9858 216.641C42.9858 217.368 43.0611 217.983 43.2116 218.486C43.3651 218.986 43.5824 219.365 43.8636 219.624C44.1449 219.879 44.483 220.007 44.8778 220.007ZM49.6452 221L53.4549 213.466V213.402H49.0487V212.273H54.8185V213.44L51.0217 221H49.6452ZM60.174 216.76V217.864H56.3047V216.76H60.174ZM61.5036 221V220.045L64.4567 216.986C64.772 216.653 65.032 216.362 65.2365 216.112C65.4439 215.859 65.5987 215.619 65.701 215.392C65.8033 215.165 65.8544 214.923 65.8544 214.668C65.8544 214.378 65.7862 214.128 65.6499 213.918C65.5135 213.705 65.3274 213.541 65.0916 213.428C64.8558 213.311 64.5902 213.253 64.2947 213.253C63.9822 213.253 63.7095 213.317 63.4766 213.445C63.2436 213.572 63.0646 213.753 62.9396 213.986C62.8146 214.219 62.7521 214.491 62.7521 214.804H61.495C61.495 214.273 61.6172 213.808 61.8615 213.411C62.1058 213.013 62.4411 212.705 62.8672 212.486C63.2933 212.264 63.7777 212.153 64.3203 212.153C64.8686 212.153 65.3516 212.263 65.7692 212.482C66.1896 212.697 66.5178 212.993 66.7536 213.368C66.9893 213.74 67.1072 214.161 67.1072 214.629C67.1072 214.953 67.0462 215.27 66.924 215.58C66.8047 215.889 66.5959 216.234 66.2976 216.615C65.9993 216.993 65.5845 217.452 65.0533 217.991L63.3189 219.807V219.871H67.2479V221H61.5036ZM72.174 212.273V221H70.853V213.594H70.8018L68.7138 214.957V213.696L70.8913 212.273H72.174Z" fill="#848899"/>
<path d="M129.278 221.145C128.605 221.142 128.029 220.964 127.552 220.612C127.075 220.26 126.71 219.747 126.457 219.074C126.204 218.401 126.078 217.589 126.078 216.641C126.078 215.695 126.204 214.886 126.457 214.216C126.713 213.545 127.079 213.034 127.556 212.682C128.036 212.33 128.61 212.153 129.278 212.153C129.945 212.153 130.518 212.331 130.995 212.686C131.472 213.038 131.838 213.55 132.09 214.22C132.346 214.888 132.474 215.695 132.474 216.641C132.474 217.592 132.347 218.405 132.095 219.078C131.842 219.749 131.477 220.261 130.999 220.616C130.522 220.969 129.948 221.145 129.278 221.145ZM129.278 220.007C129.869 220.007 130.33 219.719 130.663 219.142C130.998 218.565 131.166 217.732 131.166 216.641C131.166 215.916 131.089 215.304 130.936 214.804C130.785 214.301 130.568 213.92 130.284 213.662C130.002 213.401 129.667 213.27 129.278 213.27C128.69 213.27 128.228 213.56 127.893 214.139C127.558 214.719 127.389 215.553 127.386 216.641C127.386 217.368 127.461 217.983 127.612 218.486C127.765 218.986 127.982 219.365 128.264 219.624C128.545 219.879 128.883 220.007 129.278 220.007ZM136.934 221.119C136.324 221.119 135.784 221.014 135.315 220.804C134.849 220.594 134.484 220.304 134.22 219.935C133.956 219.565 133.825 219.145 133.828 218.673C133.825 218.304 133.9 217.964 134.054 217.655C134.21 217.342 134.422 217.082 134.689 216.875C134.956 216.665 135.254 216.531 135.584 216.474V216.423C135.149 216.318 134.801 216.085 134.54 215.724C134.278 215.364 134.149 214.949 134.152 214.48C134.149 214.034 134.267 213.636 134.505 213.287C134.747 212.935 135.078 212.658 135.498 212.456C135.919 212.254 136.398 212.153 136.934 212.153C137.466 212.153 137.94 212.256 138.358 212.46C138.778 212.662 139.109 212.939 139.351 213.291C139.592 213.641 139.714 214.037 139.717 214.48C139.714 214.949 139.581 215.364 139.317 215.724C139.052 216.085 138.709 216.318 138.285 216.423V216.474C138.612 216.531 138.906 216.665 139.167 216.875C139.432 217.082 139.642 217.342 139.798 217.655C139.957 217.964 140.038 218.304 140.041 218.673C140.038 219.145 139.905 219.565 139.64 219.935C139.376 220.304 139.01 220.594 138.541 220.804C138.075 221.014 137.54 221.119 136.934 221.119ZM136.934 220.041C137.295 220.041 137.608 219.982 137.872 219.862C138.136 219.74 138.341 219.571 138.486 219.355C138.63 219.136 138.704 218.881 138.707 218.588C138.704 218.284 138.625 218.016 138.469 217.783C138.315 217.55 138.106 217.366 137.842 217.233C137.578 217.099 137.275 217.033 136.934 217.033C136.591 217.033 136.285 217.099 136.018 217.233C135.751 217.366 135.541 217.55 135.388 217.783C135.234 218.016 135.159 218.284 135.162 218.588C135.159 218.881 135.229 219.136 135.371 219.355C135.515 219.571 135.721 219.74 135.988 219.862C136.255 219.982 136.571 220.041 136.934 220.041ZM136.934 215.98C137.224 215.98 137.481 215.922 137.706 215.805C137.93 215.689 138.106 215.527 138.234 215.32C138.365 215.112 138.432 214.869 138.434 214.591C138.432 214.318 138.366 214.08 138.238 213.875C138.113 213.67 137.939 213.513 137.714 213.402C137.49 213.288 137.23 213.232 136.934 213.232C136.633 213.232 136.369 213.288 136.142 213.402C135.917 213.513 135.743 213.67 135.618 213.875C135.493 214.08 135.432 214.318 135.434 214.591C135.432 214.869 135.494 215.112 135.622 215.32C135.75 215.527 135.926 215.689 136.15 215.805C136.378 215.922 136.639 215.98 136.934 215.98ZM145.441 216.76V217.864H141.572V216.76H145.441ZM146.771 221V220.045L149.724 216.986C150.039 216.653 150.299 216.362 150.504 216.112C150.711 215.859 150.866 215.619 150.968 215.392C151.07 215.165 151.122 214.923 151.122 214.668C151.122 214.378 151.053 214.128 150.917 213.918C150.781 213.705 150.595 213.541 150.359 213.428C150.123 213.311 149.857 213.253 149.562 213.253C149.249 213.253 148.977 213.317 148.744 213.445C148.511 213.572 148.332 213.753 148.207 213.986C148.082 214.219 148.019 214.491 148.019 214.804H146.762C146.762 214.273 146.884 213.808 147.129 213.411C147.373 213.013 147.708 212.705 148.134 212.486C148.561 212.264 149.045 212.153 149.588 212.153C150.136 212.153 150.619 212.263 151.036 212.482C151.457 212.697 151.785 212.993 152.021 213.368C152.257 213.74 152.374 214.161 152.374 214.629C152.374 214.953 152.313 215.27 152.191 215.58C152.072 215.889 151.863 216.234 151.565 216.615C151.267 216.993 150.852 217.452 150.32 217.991L148.586 219.807V219.871H152.515V221H146.771ZM157.441 212.273V221H156.12V213.594H156.069L153.981 214.957V213.696L156.159 212.273H157.441Z" fill="#848899"/>
<path d="M214.678 221.145C214.005 221.142 213.429 220.964 212.952 220.612C212.475 220.26 212.11 219.747 211.857 219.074C211.604 218.401 211.478 217.589 211.478 216.641C211.478 215.695 211.604 214.886 211.857 214.216C212.113 213.545 212.479 213.034 212.956 212.682C213.436 212.33 214.01 212.153 214.678 212.153C215.346 212.153 215.918 212.331 216.395 212.686C216.872 213.038 217.238 213.55 217.49 214.22C217.746 214.888 217.874 215.695 217.874 216.641C217.874 217.592 217.747 218.405 217.495 219.078C217.242 219.749 216.877 220.261 216.399 220.616C215.922 220.969 215.348 221.145 214.678 221.145ZM214.678 220.007C215.269 220.007 215.73 219.719 216.063 219.142C216.398 218.565 216.566 217.732 216.566 216.641C216.566 215.916 216.489 215.304 216.336 214.804C216.185 214.301 215.968 213.92 215.684 213.662C215.402 213.401 215.067 213.27 214.678 213.27C214.09 213.27 213.628 213.56 213.293 214.139C212.958 214.719 212.789 215.553 212.786 216.641C212.786 217.368 212.861 217.983 213.012 218.486C213.165 218.986 213.382 219.365 213.664 219.624C213.945 219.879 214.283 220.007 214.678 220.007ZM222.288 212.153C222.677 212.156 223.06 212.227 223.438 212.366C223.816 212.506 224.157 212.733 224.461 213.048C224.768 213.364 225.012 213.79 225.194 214.327C225.379 214.861 225.472 215.526 225.475 216.321C225.475 217.085 225.398 217.766 225.245 218.362C225.092 218.956 224.871 219.457 224.584 219.866C224.3 220.276 223.955 220.587 223.549 220.8C223.143 221.013 222.685 221.119 222.177 221.119C221.657 221.119 221.195 221.017 220.792 220.812C220.388 220.608 220.06 220.325 219.808 219.964C219.555 219.601 219.397 219.183 219.334 218.712H220.634C220.719 219.087 220.893 219.391 221.154 219.624C221.418 219.854 221.759 219.969 222.177 219.969C222.816 219.969 223.315 219.69 223.673 219.134C224.031 218.574 224.211 217.793 224.214 216.79H224.146C223.998 217.034 223.813 217.244 223.592 217.42C223.373 217.597 223.127 217.733 222.854 217.83C222.582 217.926 222.29 217.974 221.981 217.974C221.478 217.974 221.021 217.851 220.609 217.604C220.197 217.357 219.869 217.017 219.624 216.585C219.38 216.153 219.258 215.661 219.258 215.107C219.258 214.555 219.383 214.055 219.633 213.607C219.886 213.158 220.238 212.803 220.69 212.541C221.144 212.277 221.677 212.148 222.288 212.153ZM222.292 213.261C221.959 213.261 221.66 213.344 221.393 213.509C221.129 213.67 220.92 213.891 220.766 214.169C220.613 214.445 220.536 214.751 220.536 215.089C220.536 215.428 220.61 215.734 220.758 216.01C220.908 216.283 221.113 216.5 221.371 216.662C221.633 216.821 221.931 216.901 222.266 216.901C222.516 216.901 222.749 216.852 222.965 216.756C223.181 216.659 223.37 216.526 223.532 216.355C223.694 216.182 223.82 215.986 223.911 215.767C224.002 215.548 224.048 215.318 224.048 215.077C224.048 214.756 223.971 214.457 223.817 214.182C223.667 213.906 223.459 213.685 223.195 213.517C222.931 213.347 222.63 213.261 222.292 213.261ZM230.888 216.76V217.864H227.019V216.76H230.888ZM232.218 221V220.045L235.171 216.986C235.486 216.653 235.746 216.362 235.951 216.112C236.158 215.859 236.313 215.619 236.415 215.392C236.517 215.165 236.569 214.923 236.569 214.668C236.569 214.378 236.5 214.128 236.364 213.918C236.228 213.705 236.042 213.541 235.806 213.428C235.57 213.311 235.304 213.253 235.009 213.253C234.696 213.253 234.424 213.317 234.191 213.445C233.958 213.572 233.779 213.753 233.654 213.986C233.529 214.219 233.466 214.491 233.466 214.804H232.209C232.209 214.273 232.331 213.808 232.576 213.411C232.82 213.013 233.155 212.705 233.581 212.486C234.007 212.264 234.492 212.153 235.034 212.153C235.583 212.153 236.066 212.263 236.483 212.482C236.904 212.697 237.232 212.993 237.468 213.368C237.703 213.74 237.821 214.161 237.821 214.629C237.821 214.953 237.76 215.27 237.638 215.58C237.519 215.889 237.31 216.234 237.012 216.615C236.713 216.993 236.299 217.452 235.767 217.991L234.033 219.807V219.871H237.962V221H232.218ZM242.888 212.273V221H241.567V213.594H241.516L239.428 214.957V213.696L241.605 212.273H242.888Z" fill="#848899"/>
<path d="M300.351 212.273V221H299.029V213.594H298.978L296.89 214.957V213.696L299.068 212.273H300.351ZM305.75 221.145C305.076 221.142 304.501 220.964 304.024 220.612C303.547 220.26 303.181 219.747 302.929 219.074C302.676 218.401 302.549 217.589 302.549 216.641C302.549 215.695 302.676 214.886 302.929 214.216C303.184 213.545 303.551 213.034 304.028 212.682C304.508 212.33 305.082 212.153 305.75 212.153C306.417 212.153 306.99 212.331 307.467 212.686C307.944 213.038 308.309 213.55 308.562 214.22C308.818 214.888 308.946 215.695 308.946 216.641C308.946 217.592 308.819 218.405 308.566 219.078C308.314 219.749 307.949 220.261 307.471 220.616C306.994 220.969 306.42 221.145 305.75 221.145ZM305.75 220.007C306.341 220.007 306.802 219.719 307.135 219.142C307.47 218.565 307.637 217.732 307.637 216.641C307.637 215.916 307.561 215.304 307.407 214.804C307.257 214.301 307.039 213.92 306.755 213.662C306.474 213.401 306.139 213.27 305.75 213.27C305.162 213.27 304.7 213.56 304.365 214.139C304.029 214.719 303.86 215.553 303.858 216.641C303.858 217.368 303.933 217.983 304.083 218.486C304.237 218.986 304.454 219.365 304.735 219.624C305.017 219.879 305.355 220.007 305.75 220.007ZM314.331 216.76V217.864H310.462V216.76H314.331ZM315.661 221V220.045L318.614 216.986C318.929 216.653 319.189 216.362 319.393 216.112C319.601 215.859 319.756 215.619 319.858 215.392C319.96 215.165 320.011 214.923 320.011 214.668C320.011 214.378 319.943 214.128 319.807 213.918C319.67 213.705 319.484 213.541 319.249 213.428C319.013 213.311 318.747 213.253 318.452 213.253C318.139 213.253 317.866 213.317 317.634 213.445C317.401 213.572 317.222 213.753 317.097 213.986C316.972 214.219 316.909 214.491 316.909 214.804H315.652C315.652 214.273 315.774 213.808 316.018 213.411C316.263 213.013 316.598 212.705 317.024 212.486C317.45 212.264 317.935 212.153 318.477 212.153C319.026 212.153 319.509 212.263 319.926 212.482C320.347 212.697 320.675 212.993 320.911 213.368C321.146 213.74 321.264 214.161 321.264 214.629C321.264 214.953 321.203 215.27 321.081 215.58C320.962 215.889 320.753 216.234 320.455 216.615C320.156 216.993 319.741 217.452 319.21 217.991L317.476 219.807V219.871H321.405V221H315.661ZM326.331 212.273V221H325.01V213.594H324.959L322.871 214.957V213.696L325.048 212.273H326.331Z" fill="#848899"/>
<path d="M383.751 212.273V221H382.43V213.594H382.378L380.29 214.957V213.696L382.468 212.273H383.751ZM389.422 212.273V221H388.101V213.594H388.05L385.962 214.957V213.696L388.14 212.273H389.422ZM395.657 216.76V217.864H391.787V216.76H395.657ZM396.986 221V220.045L399.939 216.986C400.255 216.653 400.515 216.362 400.719 216.112C400.927 215.859 401.082 215.619 401.184 215.392C401.286 215.165 401.337 214.923 401.337 214.668C401.337 214.378 401.269 214.128 401.133 213.918C400.996 213.705 400.81 213.541 400.574 213.428C400.339 213.311 400.073 213.253 399.778 213.253C399.465 213.253 399.192 213.317 398.959 213.445C398.726 213.572 398.547 213.753 398.422 213.986C398.297 214.219 398.235 214.491 398.235 214.804H396.978C396.978 214.273 397.1 213.808 397.344 213.411C397.589 213.013 397.924 212.705 398.35 212.486C398.776 212.264 399.26 212.153 399.803 212.153C400.351 212.153 400.834 212.263 401.252 212.482C401.672 212.697 402.001 212.993 402.236 213.368C402.472 213.74 402.59 214.161 402.59 214.629C402.59 214.953 402.529 215.27 402.407 215.58C402.287 215.889 402.079 216.234 401.78 216.615C401.482 216.993 401.067 217.452 400.536 217.991L398.802 219.807V219.871H402.731V221H396.986ZM407.657 212.273V221H406.336V213.594H406.285L404.197 214.957V213.696L406.374 212.273H407.657Z" fill="#848899"/>
<path d="M465.151 212.273V221H463.83V213.594H463.778L461.69 214.957V213.696L463.868 212.273H465.151ZM467.511 221V220.045L470.464 216.986C470.78 216.653 471.04 216.362 471.244 216.112C471.452 215.859 471.607 215.619 471.709 215.392C471.811 215.165 471.862 214.923 471.862 214.668C471.862 214.378 471.794 214.128 471.658 213.918C471.521 213.705 471.335 213.541 471.099 213.428C470.864 213.311 470.598 213.253 470.303 213.253C469.99 213.253 469.717 213.317 469.484 213.445C469.251 213.572 469.072 213.753 468.947 213.986C468.822 214.219 468.76 214.491 468.76 214.804H467.503C467.503 214.273 467.625 213.808 467.869 213.411C468.114 213.013 468.449 212.705 468.875 212.486C469.301 212.264 469.786 212.153 470.328 212.153C470.876 212.153 471.359 212.263 471.777 212.482C472.197 212.697 472.526 212.993 472.761 213.368C472.997 213.74 473.115 214.161 473.115 214.629C473.115 214.953 473.054 215.27 472.932 215.58C472.813 215.889 472.604 216.234 472.305 216.615C472.007 216.993 471.592 217.452 471.061 217.991L469.327 219.807V219.871H473.256V221H467.511ZM478.744 216.76V217.864H474.875V216.76H478.744ZM480.074 221V220.045L483.027 216.986C483.342 216.653 483.602 216.362 483.807 216.112C484.014 215.859 484.169 215.619 484.271 215.392C484.374 215.165 484.425 214.923 484.425 214.668C484.425 214.378 484.357 214.128 484.22 213.918C484.084 213.705 483.898 213.541 483.662 213.428C483.426 213.311 483.161 213.253 482.865 213.253C482.553 213.253 482.28 213.317 482.047 213.445C481.814 213.572 481.635 213.753 481.51 213.986C481.385 214.219 481.322 214.491 481.322 214.804H480.065C480.065 214.273 480.188 213.808 480.432 213.411C480.676 213.013 481.011 212.705 481.438 212.486C481.864 212.264 482.348 212.153 482.891 212.153C483.439 212.153 483.922 212.263 484.339 212.482C484.76 212.697 485.088 212.993 485.324 213.368C485.56 213.74 485.678 214.161 485.678 214.629C485.678 214.953 485.616 215.27 485.494 215.58C485.375 215.889 485.166 216.234 484.868 216.615C484.57 216.993 484.155 217.452 483.624 217.991L481.889 219.807V219.871H485.818V221H480.074ZM490.744 212.273V221H489.423V213.594H489.372L487.284 214.957V213.696L489.462 212.273H490.744Z" fill="#848899"/>
</svg>
