<svg width="27" height="24" viewBox="0 0 27 24" fill="none" xmlns="http://www.w3.org/2000/svg">
<path d="M0 0H1.69751V24H0V0Z" fill="#5B6BA6"/>
<path d="M5.83175 0H14.5383C16.975 0 19.138 0.505855 21.0272 1.54567C22.9163 2.58548 24.3674 3.99063 25.4078 5.81733C26.4482 7.64403 26.9684 9.69555 26.9684 12C26.9684 14.3045 26.4482 16.3841 25.4078 18.1827C24.3674 20.0094 22.8889 21.4145 21.0272 22.4543C19.138 23.4941 17.0024 24 14.5657 24H5.83175V0ZM14.4288 22.4262C16.5917 22.4262 18.4809 21.9766 20.151 21.1054C21.7938 20.2342 23.0806 18.9977 23.9567 17.4239C24.8602 15.8501 25.2983 14.0515 25.2983 12C25.2983 9.97658 24.8602 8.14988 23.9567 6.57611C23.0532 5.00234 21.7938 3.76581 20.151 2.89461C18.5083 2.02342 16.5917 1.57377 14.4288 1.57377H7.55663V22.4262H14.4288Z" fill="#5B6BA6"/>
</svg>
