<svg width="16" height="16" viewBox="0 0 16 16" fill="none" xmlns="http://www.w3.org/2000/svg">
<path d="M7.4375 6.875C7.12684 6.875 6.875 7.12684 6.875 7.4375C6.875 7.74816 7.12684 8 7.4375 8V11.375C7.4375 11.6857 7.68934 11.9375 8 11.9375H8.5625C8.87316 11.9375 9.125 11.6857 9.125 11.375C9.125 11.0643 8.87316 10.8125 8.5625 10.8125V7.4375C8.5625 7.12684 8.31066 6.875 8 6.875H7.4375Z" fill="#848899"/>
<path fill-rule="evenodd" clip-rule="evenodd" d="M8 0.6875C3.96142 0.6875 0.6875 3.96142 0.6875 8C0.6875 12.0386 3.96142 15.3125 8 15.3125C12.0386 15.3125 15.3125 12.0386 15.3125 8C15.3125 3.96142 12.0386 0.6875 8 0.6875ZM1.8125 8C1.8125 4.58274 4.58274 1.8125 8 1.8125C11.4173 1.8125 14.1875 4.58274 14.1875 8C14.1875 11.4173 11.4173 14.1875 8 14.1875C4.58274 14.1875 1.8125 11.4173 1.8125 8Z" fill="#848899"/>
<path d="M7.85938 5.75C8.32537 5.75 8.70312 5.37224 8.70312 4.90625C8.70312 4.44026 8.32537 4.0625 7.85938 4.0625C7.39338 4.0625 7.01562 4.44026 7.01562 4.90625C7.01562 5.37224 7.39338 5.75 7.85938 5.75Z" fill="#848899"/>
</svg>
