<svg width="18" height="20" xmlns="http://www.w3.org/2000/svg">

 <g>
  <title>background</title>
  <rect fill="none" id="canvas_background" height="25" width="20" y="-1" x="-1"/>
 </g>
 <g>
  <title>Layer 1</title>
  <path id="svg_1" fill="#021b79" d="m4.5,3.25c-0.41421,0 -0.75,0.33579 -0.75,0.75l0,4.5c0,0.41421 0.33579,0.75 0.75,0.75l9,0c0.4142,0 0.75,-0.33579 0.75,-0.75l0,-4.5c0,-0.41421 -0.3358,-0.75 -0.75,-0.75l-9,0zm0.75,4.5l0,-3l7.5,0l0,3l-7.5,0z" clip-rule="evenodd" fill-rule="evenodd"/>
  <path id="svg_2" fill="#021b79" d="m2.25,0.25c-0.82843,0 -1.5,0.671573 -1.5,1.5l0,16.5c0,0.8284 0.67157,1.5 1.5,1.5l13.5,0c0.8284,0 1.5,-0.6716 1.5,-1.5l0,-16.5c0,-0.828427 -0.6716,-1.5 -1.5,-1.5l-13.5,0zm0,1.5l13.5,0l0,16.5l-13.5,0l0,-16.5z" clip-rule="evenodd" fill-rule="evenodd"/>
  <path id="svg_3" fill="#021b79" d="m5.25,13c0.62132,0 1.125,-0.5037 1.125,-1.125c0,-0.6213 -0.50368,-1.125 -1.125,-1.125c-0.62132,0 -1.125,0.5037 -1.125,1.125c0,0.6213 0.50368,1.125 1.125,1.125z"/>
  <path id="svg_4" fill="#021b79" d="m9,13c0.62132,0 1.125,-0.5037 1.125,-1.125c0,-0.6213 -0.50368,-1.125 -1.125,-1.125c-0.62132,0 -1.125,0.5037 -1.125,1.125c0,0.6213 0.50368,1.125 1.125,1.125z"/>
  <path id="svg_5" fill="#021b79" d="m12.75,13c0.6213,0 1.125,-0.5037 1.125,-1.125c0,-0.6213 -0.5037,-1.125 -1.125,-1.125c-0.6213,0 -1.125,0.5037 -1.125,1.125c0,0.6213 0.5037,1.125 1.125,1.125z"/>
  <path id="svg_6" fill="#021b79" d="m5.25,16.75c0.62132,0 1.125,-0.5037 1.125,-1.125c0,-0.6213 -0.50368,-1.125 -1.125,-1.125c-0.62132,0 -1.125,0.5037 -1.125,1.125c0,0.6213 0.50368,1.125 1.125,1.125z"/>
  <path id="svg_7" fill="#021b79" d="m9,16.75c0.62132,0 1.125,-0.5037 1.125,-1.125c0,-0.6213 -0.50368,-1.125 -1.125,-1.125c-0.62132,0 -1.125,0.5037 -1.125,1.125c0,0.6213 0.50368,1.125 1.125,1.125z"/>
  <path id="svg_8" fill="#021b79" d="m12.75,16.75c0.6213,0 1.125,-0.5037 1.125,-1.125c0,-0.6213 -0.5037,-1.125 -1.125,-1.125c-0.6213,0 -1.125,0.5037 -1.125,1.125c0,0.6213 0.5037,1.125 1.125,1.125z"/>
 </g>
</svg>