<svg width="18" height="20" viewBox="0 0 18 20" fill="none" xmlns="http://www.w3.org/2000/svg">
<path fill-rule="evenodd" clip-rule="evenodd" d="M4.5 3.25C4.08579 3.25 3.75 3.58579 3.75 4V8.5C3.75 8.91421 4.08579 9.25 4.5 9.25H13.5C13.9142 9.25 14.25 8.91421 14.25 8.5V4C14.25 3.58579 13.9142 3.25 13.5 3.25H4.5ZM5.25 7.75V4.75H12.75V7.75H5.25Z" fill="#848899"/>
<path fill-rule="evenodd" clip-rule="evenodd" d="M2.25 0.25C1.42157 0.25 0.75 0.921573 0.75 1.75V18.25C0.75 19.0784 1.42157 19.75 2.25 19.75H15.75C16.5784 19.75 17.25 19.0784 17.25 18.25V1.75C17.25 0.921573 16.5784 0.25 15.75 0.25H2.25ZM2.25 1.75H15.75V18.25H2.25V1.75Z" fill="#848899"/>
<path d="M5.25 13C5.87132 13 6.375 12.4963 6.375 11.875C6.375 11.2537 5.87132 10.75 5.25 10.75C4.62868 10.75 4.125 11.2537 4.125 11.875C4.125 12.4963 4.62868 13 5.25 13Z" fill="#848899"/>
<path d="M9 13C9.62132 13 10.125 12.4963 10.125 11.875C10.125 11.2537 9.62132 10.75 9 10.75C8.37868 10.75 7.875 11.2537 7.875 11.875C7.875 12.4963 8.37868 13 9 13Z" fill="#848899"/>
<path d="M12.75 13C13.3713 13 13.875 12.4963 13.875 11.875C13.875 11.2537 13.3713 10.75 12.75 10.75C12.1287 10.75 11.625 11.2537 11.625 11.875C11.625 12.4963 12.1287 13 12.75 13Z" fill="#848899"/>
<path d="M5.25 16.75C5.87132 16.75 6.375 16.2463 6.375 15.625C6.375 15.0037 5.87132 14.5 5.25 14.5C4.62868 14.5 4.125 15.0037 4.125 15.625C4.125 16.2463 4.62868 16.75 5.25 16.75Z" fill="#848899"/>
<path d="M9 16.75C9.62132 16.75 10.125 16.2463 10.125 15.625C10.125 15.0037 9.62132 14.5 9 14.5C8.37868 14.5 7.875 15.0037 7.875 15.625C7.875 16.2463 8.37868 16.75 9 16.75Z" fill="#848899"/>
<path d="M12.75 16.75C13.3713 16.75 13.875 16.2463 13.875 15.625C13.875 15.0037 13.3713 14.5 12.75 14.5C12.1287 14.5 11.625 15.0037 11.625 15.625C11.625 16.2463 12.1287 16.75 12.75 16.75Z" fill="#848899"/>
</svg>
