<svg width="18" height="21" viewBox="0 0 18 21" fill="none" xmlns="http://www.w3.org/2000/svg">
<path fill-rule="evenodd" clip-rule="evenodd" d="M13.125 4.875V7.5H16.5C17.3284 7.5 18 8.17157 18 9V19.5C18 20.3284 17.3284 21 16.5 21H1.5C0.671573 21 0 20.3284 0 19.5V9C0 8.17157 0.671573 7.5 1.5 7.5H4.875V4.875C4.875 3.78098 5.3096 2.73177 6.08319 1.95818C6.85677 1.1846 7.90598 0.75 9 0.75C10.094 0.75 11.1432 1.1846 11.9168 1.95818C12.6904 2.73177 13.125 3.78098 13.125 4.875ZM7.14384 3.01884C7.63613 2.52656 8.30381 2.25 9 2.25C9.69619 2.25 10.3639 2.52656 10.8562 3.01884C11.3484 3.51113 11.625 4.17881 11.625 4.875V7.5H6.375V4.875C6.375 4.17881 6.65156 3.51113 7.14384 3.01884ZM1.5 9H16.5V19.5H1.5V9Z" fill="#021B79"/>
<path d="M9 15.375C9.62132 15.375 10.125 14.8713 10.125 14.25C10.125 13.6287 9.62132 13.125 9 13.125C8.37868 13.125 7.875 13.6287 7.875 14.25C7.875 14.8713 8.37868 15.375 9 15.375Z" fill="#021B79"/>
</svg>
