<svg width="527" height="600" viewBox="0 0 527 600" fill="none" xmlns="http://www.w3.org/2000/svg">
<g clip-path="url(#clip0_172_3129)">
<rect x="-470" width="997" height="600" rx="20" fill="white"/>
<path fill-rule="evenodd" clip-rule="evenodd" d="M-450 0C-461.046 0 -470 8.95432 -470 20V580C-470 591.046 -461.046 600 -450 600H507C518.046 600 527 591.046 527 580V20C527 8.95431 518.046 0 507 0H-450ZM-469 21C-469 9.9543 -460.046 1 -449 1H506C517.046 1 526 9.95431 526 21V579C526 590.046 517.046 599 506 599H-449C-460.046 599 -469 590.046 -469 579V21Z" fill="#C2D1D9"/>
<mask id="mask0_172_3129" style="mask-type:alpha" maskUnits="userSpaceOnUse" x="-470" y="0" width="997" height="600">
<path fill-rule="evenodd" clip-rule="evenodd" d="M-450 0C-461.046 0 -470 8.95432 -470 20V580C-470 591.046 -461.046 600 -450 600H507C518.046 600 527 591.046 527 580V20C527 8.95431 518.046 0 507 0H-450ZM-469 21C-469 9.9543 -460.046 1 -449 1H506C517.046 1 526 9.95431 526 21V579C526 590.046 517.046 599 506 599H-449C-460.046 599 -469 590.046 -469 579V21Z" fill="white"/>
</mask>
<g mask="url(#mask0_172_3129)">
<rect x="-470" width="997" height="600" rx="20" fill="#424B5A"/>
</g>
<rect x="115" y="282" width="68" height="56" rx="4" fill="white"/>
<path fill-rule="evenodd" clip-rule="evenodd" d="M179 282H119C116.791 282 115 283.791 115 286V334C115 336.209 116.791 338 119 338H179C181.209 338 183 336.209 183 334V286C183 283.791 181.209 282 179 282ZM119 334V286H179V334H119Z" fill="#C2D1D9"/>
<path fill-rule="evenodd" clip-rule="evenodd" d="M126 298.5C126 302.642 129.358 306 133.5 306C137.642 306 141 302.642 141 298.5C141 294.358 137.642 291 133.5 291C129.358 291 126 294.358 126 298.5ZM137 298.5C137 300.433 135.433 302 133.5 302C131.567 302 130 300.433 130 298.5C130 296.567 131.567 295 133.5 295C135.433 295 137 296.567 137 298.5Z" fill="#C2D1D9"/>
<path d="M129.408 329.42C128.624 330.198 127.357 330.193 126.58 329.408C125.802 328.624 125.807 327.357 126.592 326.58L143.041 310.272L152.313 318.336C153.146 319.061 153.234 320.324 152.509 321.158C151.784 321.991 150.521 322.079 149.687 321.354L143.219 315.728L129.408 329.42Z" fill="#C2D1D9"/>
<path d="M144.414 329.414C143.633 330.195 142.367 330.195 141.586 329.414C140.805 328.633 140.805 327.367 141.586 326.586L167.908 300.261L182.319 312.905C183.149 313.634 183.232 314.897 182.503 315.728C181.775 316.558 180.511 316.64 179.681 315.912L168.087 305.739L144.414 329.414Z" fill="#C2D1D9"/>
<path d="M-470 50V49H526.875V50H-470Z" fill="#424B5A"/>
<g clip-path="url(#clip1_172_3129)">
<rect x="-221.913" y="12" width="536" height="30" rx="2" fill="#C2D1D9"/>
</g>
</g>
<defs>
<clipPath id="clip0_172_3129">
<rect width="997" height="600" fill="white" transform="translate(-470)"/>
</clipPath>
<clipPath id="clip1_172_3129">
<rect width="536.488" height="30" fill="white" transform="translate(-221.913 12)"/>
</clipPath>
</defs>
</svg>
