<svg width="160" height="42" viewBox="0 0 160 42" fill="none" xmlns="http://www.w3.org/2000/svg">
<g clip-path="url(#clip0_172_3106)">
<path d="M4 6H6.16724V36H4V6Z" fill="#4D5D99"/>
<path d="M11.4456 6H22.5614C25.6724 6 28.4339 6.63232 30.8458 7.93208C33.2578 9.23185 35.1104 10.9883 36.4387 13.2717C37.767 15.555 38.4312 18.1194 38.4312 21C38.4312 23.8806 37.767 26.4801 36.4387 28.7283C35.1104 31.0117 33.2228 32.7682 30.8458 34.0679C28.4339 35.3677 25.7074 36 22.5963 36H11.4456V6ZM22.4216 34.0328C25.183 34.0328 27.595 33.4707 29.7273 32.3817C31.8246 31.2927 33.4675 29.7471 34.5861 27.7799C35.7396 25.8126 36.2989 23.5644 36.2989 21C36.2989 18.4707 35.7396 16.1874 34.5861 14.2201C33.4325 12.2529 31.8246 10.7073 29.7273 9.61827C27.6299 8.52927 25.183 7.96721 22.4216 7.96721H13.6478V34.0328H22.4216Z" fill="#4D5D99"/>
<path d="M59.2645 6.38672L59.5092 13.5881H58.5304C58.3207 12.0073 57.9012 10.7076 57.2021 9.68883C56.503 8.67009 55.8039 8.00264 55.0698 7.75674C54.3357 7.51084 53.0424 7.37033 51.2946 7.37033H45.7018V19.5952H48.3933C50.1411 19.5952 51.2946 19.3141 51.8539 18.7169C52.4132 18.1197 52.7278 16.9605 52.7278 15.1689H53.7765V25.3211H52.7278C52.7278 24.0916 52.588 23.108 52.3433 22.4055C52.0986 21.7029 51.7141 21.2111 51.2597 20.93C50.7703 20.6841 49.8265 20.5436 48.4283 20.5436H45.7367V27.7099C45.7367 29.9933 45.8066 31.4687 45.9115 32.1713C46.0164 32.8738 46.296 33.4008 46.7854 33.7521C47.2398 34.1033 48.1137 34.279 49.442 34.279H50.4207V35.2626H36.9629V34.279H37.8368C39.0602 34.279 39.8991 34.1385 40.3885 33.8223C40.8779 33.5062 41.1575 33.0144 41.2974 32.382C41.4372 31.7146 41.5071 30.2041 41.5071 27.7802V13.5881C41.5071 11.3048 41.4372 9.79421 41.2974 9.12677C41.1575 8.45932 40.8779 8.00264 40.4584 7.75674C40.039 7.51084 39.0952 7.37033 37.627 7.37033H37.1027V6.38672H59.2645Z" fill="url(#paint0_linear_172_3106)"/>
<path d="M82.8244 6.38672H92.4022V7.37033C91.1438 7.44058 90.2 7.75674 89.5708 8.24855C88.9416 8.74035 88.5571 9.30241 88.4172 9.8996C88.2774 10.4968 88.2075 11.6912 88.2075 13.4476V23.0378C88.2075 25.4968 88.1026 27.3235 87.9279 28.5179C87.7531 29.7122 87.1938 30.8715 86.285 32.0307C85.3761 33.19 84.0828 34.1033 82.4399 34.7708C80.797 35.4382 78.8744 35.7895 76.7421 35.7895C74.1904 35.7895 72.0231 35.368 70.2404 34.4898C68.4577 33.6115 67.1993 32.4874 66.4652 31.1174C65.6962 29.7474 65.3467 27.8855 65.3467 25.567L65.3816 22.6162V13.5881C65.3816 11.3048 65.3117 9.79421 65.1719 9.12677C65.0321 8.45932 64.7524 8.00264 64.3329 7.75674C63.9135 7.51084 62.9697 7.37033 61.5016 7.37033H60.8374V6.38672H73.9457V7.37033H73.3864C71.9882 7.37033 71.0444 7.47571 70.6249 7.72161C70.1705 7.96752 69.8909 8.38906 69.751 9.02138C69.6112 9.6537 69.5413 11.1642 69.5413 13.5881V22.6865C69.5413 25.8481 69.6811 28.0612 69.9608 29.3961C70.2404 30.731 71.0793 31.8551 72.4077 32.8387C73.736 33.8223 75.5187 34.3141 77.7558 34.3141C79.5036 34.3141 81.1116 33.998 82.5447 33.3305C83.9779 32.6631 85.0266 31.8551 85.7257 30.8715C86.4248 29.8879 86.8443 28.8692 87.019 27.8153C87.1588 26.7614 87.2637 25.1455 87.2637 22.8973V13.0612C87.2637 11.4453 87.1588 10.286 86.9841 9.6537C86.8093 8.98625 86.3898 8.49445 85.7956 8.10803C85.2013 7.72161 84.2226 7.47571 82.9292 7.40545V6.38672H82.8244Z" fill="url(#paint1_linear_172_3106)"/>
<path d="M120.227 35.8949L99.9176 8.84574V28.8692C99.9176 30.5202 99.9875 31.6092 100.162 32.1361C100.337 32.6631 100.792 33.1549 101.561 33.5764C102.33 34.0331 103.448 34.2439 104.986 34.2439V35.2275H94.2898V34.2439C95.6531 34.1385 96.7017 33.8926 97.4358 33.5062C98.1698 33.1197 98.5893 32.6631 98.7291 32.2064C98.869 31.7497 98.9389 30.6256 98.9389 28.9043V13.5881C98.9389 11.375 98.834 9.8996 98.6243 9.12677C98.4145 8.38906 98.0999 7.89726 97.6455 7.68648C97.1911 7.47571 96.2123 7.37033 94.6743 7.37033V6.38672H103.134L120.122 28.9394V11.7263C120.122 10.4617 119.982 9.54831 119.737 9.05651C119.493 8.52958 118.933 8.14316 118.129 7.827C117.325 7.51084 116.347 7.37033 115.228 7.37033V6.38672H125.645V7.37033C124.421 7.47571 123.478 7.68648 122.778 8.0729C122.079 8.42419 121.625 8.88086 121.45 9.4078C121.275 9.93473 121.171 10.8129 121.171 12.0425V35.8949H120.227Z" fill="url(#paint2_linear_172_3106)"/>
<path d="M127.288 6.6324L132.007 6.3865C135.957 6.17573 138.613 6.10547 139.977 6.10547C144.241 6.10547 147.562 6.77292 149.939 8.07268C152.316 9.37245 154.099 11.1289 155.252 13.3771C156.406 15.6254 157 18.1898 157 21.1055C157 23.2132 156.685 25.1453 156.056 26.9017C155.427 28.6582 154.553 30.0984 153.434 31.2577C152.316 32.4169 151.058 33.2952 149.589 33.8924C148.121 34.4895 146.758 34.876 145.43 35.0165C144.101 35.157 142.284 35.2272 139.872 35.2272H127.148V34.2436H128.336C129.56 34.2436 130.399 34.1031 130.888 33.787C131.378 33.4708 131.657 32.979 131.797 32.3467C131.937 31.6792 132.007 30.1687 132.007 27.7448V13.8338C132.007 11.5504 131.937 10.0399 131.797 9.37245C131.657 8.705 131.378 8.24833 130.958 8.00242C130.539 7.75652 129.595 7.61601 128.127 7.61601H127.288V6.6324ZM136.132 7.22959V26.5153C136.132 29.3607 136.201 31.1874 136.306 32.0305C136.411 32.8385 136.726 33.4357 137.25 33.7518C137.774 34.068 138.893 34.2436 140.606 34.2436C143.088 34.2436 145.15 33.8923 146.758 33.2249C148.366 32.5223 149.694 31.1874 150.778 29.15C151.861 27.1125 152.386 24.5481 152.386 21.4216C152.386 18.9977 152.071 16.8198 151.442 14.8877C150.813 12.9907 149.904 11.4099 148.75 10.2155C147.562 9.02116 146.269 8.2132 144.87 7.75652C143.437 7.33498 141.62 7.1242 139.382 7.1242C138.334 7.1242 137.25 7.15933 136.132 7.22959Z" fill="url(#paint3_linear_172_3106)"/>
</g>
<defs>
<linearGradient id="paint0_linear_172_3106" x1="63.3535" y1="6.38672" x2="50.6487" y2="27.2459" gradientUnits="userSpaceOnUse">
<stop stop-color="#0575E6"/>
<stop offset="1" stop-color="#021B79"/>
</linearGradient>
<linearGradient id="paint1_linear_172_3106" x1="97.7843" y1="6.38672" x2="87.0009" y2="30.729" gradientUnits="userSpaceOnUse">
<stop stop-color="#0575E6"/>
<stop offset="1" stop-color="#021B79"/>
</linearGradient>
<linearGradient id="paint2_linear_172_3106" x1="130.991" y1="6.38672" x2="120.095" y2="30.7335" gradientUnits="userSpaceOnUse">
<stop stop-color="#0575E6"/>
<stop offset="1" stop-color="#021B79"/>
</linearGradient>
<linearGradient id="paint3_linear_172_3106" x1="162.09" y1="6.10547" x2="151.08" y2="29.8383" gradientUnits="userSpaceOnUse">
<stop stop-color="#0575E6"/>
<stop offset="1" stop-color="#021B79"/>
</linearGradient>
<clipPath id="clip0_172_3106">
<rect width="153" height="30" fill="white" transform="translate(4 6)"/>
</clipPath>
</defs>
</svg>
