<svg width="18" height="20" viewBox="0 0 18 20" fill="none" xmlns="http://www.w3.org/2000/svg">
<path d="M5.25 11.5C4.83579 11.5 4.5 11.8358 4.5 12.25C4.5 12.6642 4.83579 13 5.25 13H9.75C10.1642 13 10.5 12.6642 10.5 12.25C10.5 11.8358 10.1642 11.5 9.75 11.5H5.25Z" fill="#848899"/>
<path d="M5.25 14.5C4.83579 14.5 4.5 14.8358 4.5 15.25C4.5 15.6642 4.83579 16 5.25 16H9.75C10.1642 16 10.5 15.6642 10.5 15.25C10.5 14.8358 10.1642 14.5 9.75 14.5H5.25Z" fill="#848899"/>
<path fill-rule="evenodd" clip-rule="evenodd" d="M5.25 0.25C4.85217 0.25 4.47064 0.408036 4.18934 0.68934C3.90804 0.970644 3.75 1.35217 3.75 1.75V3.25H2.25C1.85217 3.25 1.47064 3.40804 1.18934 3.68934C0.908036 3.97064 0.75 4.35217 0.75 4.75V18.25C0.75 18.6478 0.908035 19.0294 1.18934 19.3107C1.47065 19.592 1.85218 19.75 2.25 19.75H12.75C13.1478 19.75 13.5294 19.592 13.8107 19.3107C14.092 19.0294 14.25 18.6478 14.25 18.25V16.75H15.75C16.1478 16.75 16.5294 16.592 16.8107 16.3107C17.092 16.0294 17.25 15.6478 17.25 15.25V4.75C17.25 4.55109 17.171 4.36032 17.0303 4.21967L13.2803 0.46967C13.1397 0.329018 12.9489 0.25 12.75 0.25H5.25ZM2.25 4.75H9.43934L12.75 8.06066V18.25H2.25L2.25 4.75ZM14.0303 7.21967C14.171 7.36032 14.25 7.55109 14.25 7.75V15.25H15.75V5.06066L12.4393 1.75L5.25 1.75V3.25H9.75C9.94891 3.25 10.1397 3.32902 10.2803 3.46967L14.0303 7.21967Z" fill="#848899"/>
</svg>
