<svg width="18" height="20" xmlns="http://www.w3.org/2000/svg">

 <g>
  <title>background</title>
  <rect fill="none" id="canvas_background" height="25" width="20" y="-1" x="-1"/>
 </g>
 <g>
  <title>Layer 1</title>
  <path id="svg_1" fill="#021b79" d="m5.25,11.5c-0.41421,0 -0.75,0.3358 -0.75,0.75c0,0.4142 0.33579,0.75 0.75,0.75l4.5,0c0.4142,0 0.75,-0.3358 0.75,-0.75c0,-0.4142 -0.3358,-0.75 -0.75,-0.75l-4.5,0z"/>
  <path id="svg_2" fill="#021b79" d="m5.25,14.5c-0.41421,0 -0.75,0.3358 -0.75,0.75c0,0.4142 0.33579,0.75 0.75,0.75l4.5,0c0.4142,0 0.75,-0.3358 0.75,-0.75c0,-0.4142 -0.3358,-0.75 -0.75,-0.75l-4.5,0z"/>
  <path id="svg_3" fill="#021b79" d="m5.25,0.25c-0.39783,0 -0.77936,0.158036 -1.06066,0.43934c-0.2813,0.281304 -0.43934,0.66283 -0.43934,1.06066l0,1.5l-1.5,0c-0.39783,0 -0.77936,0.15804 -1.06066,0.43934c-0.281304,0.2813 -0.43934,0.66283 -0.43934,1.06066l0,13.5c0,0.3978 0.158035,0.7794 0.43934,1.0607c0.28131,0.2813 0.66284,0.4393 1.06066,0.4393l10.5,0c0.3978,0 0.7794,-0.158 1.0607,-0.4393c0.2813,-0.2813 0.4393,-0.6629 0.4393,-1.0607l0,-1.5l1.5,0c0.3978,0 0.7794,-0.158 1.0607,-0.4393c0.2813,-0.2813 0.4393,-0.6629 0.4393,-1.0607l0,-10.5c0,-0.19891 -0.079,-0.38968 -0.2197,-0.53033l-3.75,-3.75c-0.1406,-0.140652 -0.3314,-0.21967 -0.5303,-0.21967l-7.5,0zm-3,4.5l7.18934,0l3.31066,3.31066l0,10.18934l-10.5,0l0,-13.5zm11.7803,2.46967c0.1407,0.14065 0.2197,0.33142 0.2197,0.53033l0,7.5l1.5,0l0,-10.18934l-3.3107,-3.31066l-7.1893,0l0,1.5l4.5,0c0.19891,0 0.3897,0.07902 0.5303,0.21967l3.75,3.75z" clip-rule="evenodd" fill-rule="evenodd"/>
 </g>
</svg>