<svg width="14" height="14" viewBox="0 0 14 14" fill="none" xmlns="http://www.w3.org/2000/svg">
<path d="M10.0952 5.86168C10.295 5.67101 10.3023 5.35451 10.1117 5.15476C9.92101 4.95501 9.60451 4.94765 9.40476 5.13832L6.08332 8.30878L4.59524 6.88832C4.39549 6.69765 4.07899 6.70501 3.88832 6.90476C3.69765 7.10451 3.70501 7.42101 3.90476 7.61168L5.73807 9.36168C5.93128 9.54611 6.23534 9.54611 6.42855 9.36168L10.0952 5.86168Z" fill="#178213"/>
<path fill-rule="evenodd" clip-rule="evenodd" d="M7 0.5C3.41015 0.5 0.5 3.41015 0.5 7C0.5 10.5899 3.41015 13.5 7 13.5C10.5899 13.5 13.5 10.5899 13.5 7C13.5 3.41015 10.5899 0.5 7 0.5ZM1.5 7C1.5 3.96243 3.96243 1.5 7 1.5C10.0376 1.5 12.5 3.96243 12.5 7C12.5 10.0376 10.0376 12.5 7 12.5C3.96243 12.5 1.5 10.0376 1.5 7Z" fill="#178213"/>
</svg>
