<svg width="13" height="13" viewBox="0 0 13 13" fill="none" xmlns="http://www.w3.org/2000/svg">
<path fill-rule="evenodd" clip-rule="evenodd" d="M10.3536 0.646447C10.1583 0.451184 9.84171 0.451184 9.64645 0.646447L3.64645 6.64645C3.55268 6.74021 3.5 6.86739 3.5 7V9C3.5 9.27614 3.72386 9.5 4 9.5H6C6.13261 9.5 6.25979 9.44732 6.35355 9.35355L12.3536 3.35355C12.5488 3.15829 12.5488 2.84171 12.3536 2.64645L10.3536 0.646447ZM4.5 8.5V7.20711L8.5 3.20711L9.79289 4.5L5.79289 8.5H4.5ZM9.20711 2.5L10.5 3.79289L11.2929 3L10 1.70711L9.20711 2.5Z" fill="#021B79"/>
<path d="M1 1C0.734783 1 0.480429 1.10536 0.292893 1.29289C0.105357 1.48043 0 1.73478 0 2V12C0 12.2652 0.105357 12.5196 0.292893 12.7071C0.48043 12.8946 0.734784 13 1 13H11C11.2652 13 11.5196 12.8946 11.7071 12.7071C11.8946 12.5196 12 12.2652 12 12V6.5C12 6.22386 11.7761 6 11.5 6C11.2239 6 11 6.22386 11 6.5V12H1L1 2L6.5 2C6.77614 2 7 1.77614 7 1.5C7 1.22386 6.77614 1 6.5 1H1Z" fill="#021B79"/>
</svg>
