<svg width="311" height="225" viewBox="0 0 311 225" fill="none" xmlns="http://www.w3.org/2000/svg">
<path d="M11.8864 12.1193C11.4972 12.1136 11.1136 12.0426 10.7358 11.9062C10.3608 11.7699 10.0199 11.5426 9.71307 11.2244C9.40625 10.9062 9.16051 10.4787 8.97585 9.94176C8.79403 9.40483 8.70312 8.73437 8.70312 7.9304C8.70312 7.16903 8.77841 6.4929 8.92898 5.90199C9.08239 5.31108 9.30256 4.8125 9.58949 4.40625C9.87642 3.99716 10.223 3.68608 10.6293 3.47301C11.0355 3.25994 11.4915 3.15341 11.9972 3.15341C12.517 3.15341 12.9787 3.25568 13.3821 3.46023C13.7855 3.66477 14.1122 3.94744 14.3622 4.30824C14.6151 4.66903 14.7756 5.07955 14.8438 5.53977H13.544C13.456 5.17614 13.2813 4.87926 13.0199 4.64915C12.7585 4.41903 12.4176 4.30398 11.9972 4.30398C11.358 4.30398 10.8594 4.58239 10.5014 5.1392C10.1463 5.69602 9.96733 6.47017 9.96449 7.46165H10.0284C10.179 7.21449 10.3636 7.00426 10.5824 6.83097C10.804 6.65483 11.0511 6.51989 11.3239 6.42614C11.5994 6.32955 11.8892 6.28125 12.1932 6.28125C12.6989 6.28125 13.1563 6.40483 13.5653 6.65199C13.9773 6.89631 14.3054 7.23437 14.5497 7.66619C14.794 8.09801 14.9162 8.59233 14.9162 9.14915C14.9162 9.70597 14.7898 10.2102 14.5369 10.6619C14.2869 11.1136 13.9347 11.4716 13.4801 11.7358C13.0256 11.9972 12.4943 12.125 11.8864 12.1193ZM11.8821 11.0114C12.2173 11.0114 12.517 10.929 12.7812 10.7642C13.0455 10.5994 13.2543 10.3778 13.4077 10.0994C13.5611 9.82102 13.6378 9.50994 13.6378 9.16619C13.6378 8.83097 13.5625 8.52557 13.4119 8.25C13.2642 7.97443 13.0597 7.75568 12.7983 7.59375C12.5398 7.43182 12.2443 7.35085 11.9119 7.35085C11.6591 7.35085 11.4247 7.39915 11.2088 7.49574C10.9957 7.59233 10.8082 7.72585 10.6463 7.89631C10.4844 8.06676 10.3565 8.26278 10.2628 8.48438C10.1719 8.70312 10.1264 8.93466 10.1264 9.17898C10.1264 9.50568 10.2017 9.80824 10.3523 10.0866C10.5057 10.3651 10.7145 10.5895 10.9787 10.7599C11.2457 10.9276 11.5469 11.0114 11.8821 11.0114ZM16.5877 3.27273H18.1857L20.9641 10.0568H21.0664L23.8448 3.27273H25.4428V12H24.19V5.68466H24.109L21.5352 11.9872H20.4954L17.9215 5.6804H17.8406V12H16.5877V3.27273Z" fill="#848899"/>
<path d="M11.7202 48.9191C11.1861 48.9191 10.706 48.8169 10.2798 48.6123C9.85653 48.4049 9.51847 48.1208 9.26562 47.76C9.01278 47.3992 8.87784 46.9873 8.8608 46.5242H10.1392C10.1705 46.8992 10.3366 47.2075 10.6378 47.449C10.9389 47.6904 11.2997 47.8112 11.7202 47.8112C12.0554 47.8112 12.3523 47.7345 12.6108 47.5811C12.8722 47.4248 13.0767 47.2103 13.2244 46.9376C13.375 46.6649 13.4503 46.3538 13.4503 46.0044C13.4503 45.6492 13.3736 45.3325 13.2202 45.0541C13.0668 44.7757 12.8551 44.5569 12.5852 44.3978C12.3182 44.2387 12.0114 44.1578 11.6648 44.1549C11.4006 44.1549 11.1349 44.2004 10.8679 44.2913C10.6009 44.3822 10.3849 44.5015 10.2202 44.6492L9.0142 44.4703L9.50426 40.0725H14.3026V41.2018H10.5994L10.3224 43.6436H10.3736C10.544 43.4788 10.7699 43.341 11.0511 43.2302C11.3352 43.1194 11.6392 43.064 11.9631 43.064C12.4943 43.064 12.9673 43.1904 13.3821 43.4433C13.7997 43.6961 14.1278 44.0413 14.3665 44.4788C14.608 44.9134 14.7273 45.4134 14.7244 45.9788C14.7273 46.5441 14.5994 47.0484 14.3409 47.4916C14.0852 47.9347 13.7301 48.2842 13.2756 48.5399C12.8239 48.7927 12.3054 48.9191 11.7202 48.9191ZM16.4002 40.0725H17.9982L20.7766 46.8566H20.8789L23.6573 40.0725H25.2553V48.7998H24.0025V42.4845H23.9215L21.3477 48.787H20.3079L17.734 42.4802H17.6531V48.7998H16.4002V40.0725Z" fill="#848899"/>
<path d="M8.65625 83.8956V82.8302L12.4276 76.8728H13.267V78.441H12.7344L10.0369 82.7109V82.7791H15.206V83.8956H8.65625ZM12.794 85.6001V83.5717L12.8026 83.0859V76.8728H14.0511V85.6001H12.794ZM16.8104 76.8728H18.4084L21.1868 83.6569H21.2891L24.0675 76.8728H25.6655V85.6001H24.4126V79.2848H24.3317L21.7578 85.5873H20.718L18.1442 79.2805H18.0632V85.6001H16.8104V76.8728Z" fill="#848899"/>
<path d="M11.8778 122.519C11.2926 122.519 10.7699 122.418 10.3097 122.217C9.85227 122.015 9.49006 121.735 9.22301 121.377C8.95881 121.016 8.81676 120.599 8.79688 120.124H10.1349C10.152 120.383 10.2386 120.607 10.3949 120.798C10.554 120.985 10.7614 121.13 11.017 121.232C11.2727 121.335 11.5568 121.386 11.8693 121.386C12.2131 121.386 12.517 121.326 12.7812 121.207C13.0483 121.087 13.2571 120.921 13.4077 120.708C13.5582 120.492 13.6335 120.244 13.6335 119.962C13.6335 119.67 13.5582 119.413 13.4077 119.191C13.2599 118.967 13.0426 118.791 12.7557 118.663C12.4716 118.535 12.1278 118.471 11.7244 118.471H10.9872V117.397H11.7244C12.0483 117.397 12.3324 117.339 12.5767 117.222C12.8239 117.106 13.017 116.944 13.1562 116.737C13.2955 116.526 13.3651 116.281 13.3651 115.999C13.3651 115.729 13.304 115.495 13.1818 115.296C13.0625 115.095 12.892 114.937 12.6705 114.823C12.4517 114.71 12.1932 114.653 11.8949 114.653C11.6108 114.653 11.3452 114.705 11.098 114.81C10.8537 114.913 10.6548 115.06 10.5014 115.254C10.348 115.444 10.2656 115.673 10.2543 115.94H8.98011C8.99432 115.468 9.13352 115.053 9.39773 114.695C9.66477 114.337 10.017 114.058 10.4545 113.856C10.892 113.654 11.3778 113.553 11.9119 113.553C12.4716 113.553 12.9545 113.663 13.3608 113.881C13.7699 114.097 14.0852 114.386 14.3068 114.746C14.5313 115.107 14.642 115.502 14.6392 115.931C14.642 116.42 14.5057 116.835 14.2301 117.175C13.9574 117.516 13.5938 117.745 13.1392 117.862V117.93C13.7188 118.018 14.1676 118.248 14.4858 118.62C14.8068 118.992 14.9659 119.454 14.9631 120.005C14.9659 120.485 14.8324 120.916 14.5625 121.296C14.2955 121.677 13.9304 121.977 13.4673 122.195C13.0043 122.411 12.4744 122.519 11.8778 122.519ZM16.6932 113.673H18.2912L21.0696 120.457H21.1719L23.9503 113.673H25.5483V122.4H24.2955V116.085H24.2145L21.6406 122.387H20.6009L18.027 116.08H17.946V122.4H16.6932V113.673Z" fill="#848899"/>
<path d="M8.83949 159.2V158.246L11.7926 155.186C12.108 154.854 12.3679 154.562 12.5724 154.312C12.7798 154.06 12.9347 153.82 13.0369 153.592C13.1392 153.365 13.1903 153.123 13.1903 152.868C13.1903 152.578 13.1222 152.328 12.9858 152.118C12.8494 151.905 12.6634 151.741 12.4276 151.628C12.1918 151.511 11.9261 151.453 11.6307 151.453C11.3182 151.453 11.0455 151.517 10.8125 151.645C10.5795 151.773 10.4006 151.953 10.2756 152.186C10.1506 152.419 10.0881 152.692 10.0881 153.004H8.83097C8.83097 152.473 8.95313 152.008 9.19744 151.611C9.44176 151.213 9.77699 150.905 10.2031 150.686C10.6293 150.464 11.1136 150.354 11.6562 150.354C12.2045 150.354 12.6875 150.463 13.1051 150.682C13.5256 150.898 13.8537 151.193 14.0895 151.568C14.3253 151.94 14.4432 152.361 14.4432 152.829C14.4432 153.153 14.3821 153.47 14.2599 153.78C14.1406 154.089 13.9318 154.435 13.6335 154.815C13.3352 155.193 12.9205 155.652 12.3892 156.192L10.6548 158.007V158.071H14.5838V159.2H8.83949ZM16.3182 150.473H17.9162L20.6946 157.257H20.7969L23.5753 150.473H25.1733V159.2H23.9205V152.885H23.8395L21.2656 159.187H20.2259L17.652 152.881H17.571V159.2H16.3182V150.473Z" fill="#848899"/>
<path d="M12.1506 187.273V196H10.8295V188.594H10.7784L8.69034 189.957V188.696L10.8679 187.273H12.1506ZM14.6307 187.273H16.2287L19.0071 194.057H19.1094L21.8878 187.273H23.4858V196H22.233V189.685H22.152L19.5781 195.987H18.5384L15.9645 189.68H15.8835V196H14.6307V187.273Z" fill="#848899"/>
<rect x="49" y="6" width="254" height="1" fill="#EFEFEF"/>
<rect x="49" y="43.3999" width="254" height="1" fill="#EFEFEF"/>
<rect x="49" y="80.7998" width="254" height="1" fill="#EFEFEF"/>
<rect x="49" y="118.2" width="254" height="1" fill="#EFEFEF"/>
<rect x="49" y="155.6" width="254" height="1" fill="#EFEFEF"/>
<rect x="49" y="193" width="254" height="1" fill="#EFEFEF"/>
<path d="M49 176L101.118 149.161L149.642 153.29L203.557 97.5484L250.283 71.7419L303 16" stroke="#0575E6" stroke-width="3" stroke-linecap="round" stroke-linejoin="round"/>
<path d="M52.8778 221.145C52.2045 221.142 51.6293 220.964 51.152 220.612C50.6747 220.26 50.3097 219.747 50.0568 219.074C49.804 218.401 49.6776 217.589 49.6776 216.641C49.6776 215.695 49.804 214.886 50.0568 214.216C50.3125 213.545 50.679 213.034 51.1562 212.682C51.6364 212.33 52.2102 212.153 52.8778 212.153C53.5455 212.153 54.1179 212.331 54.5952 212.686C55.0724 213.038 55.4375 213.55 55.6903 214.22C55.946 214.888 56.0739 215.695 56.0739 216.641C56.0739 217.592 55.9474 218.405 55.6946 219.078C55.4418 219.749 55.0767 220.261 54.5994 220.616C54.1222 220.969 53.5483 221.145 52.8778 221.145ZM52.8778 220.007C53.4688 220.007 53.9304 219.719 54.2628 219.142C54.598 218.565 54.7656 217.732 54.7656 216.641C54.7656 215.916 54.6889 215.304 54.5355 214.804C54.3849 214.301 54.1676 213.92 53.8835 213.662C53.6023 213.401 53.267 213.27 52.8778 213.27C52.2898 213.27 51.8281 213.56 51.4929 214.139C51.1577 214.719 50.9886 215.553 50.9858 216.641C50.9858 217.368 51.0611 217.983 51.2116 218.486C51.3651 218.986 51.5824 219.365 51.8636 219.624C52.1449 219.879 52.483 220.007 52.8778 220.007ZM57.6452 221L61.4549 213.466V213.402H57.0487V212.273H62.8185V213.44L59.0217 221H57.6452ZM68.174 216.76V217.864H64.3047V216.76H68.174ZM69.5036 221V220.045L72.4567 216.986C72.772 216.653 73.032 216.362 73.2365 216.112C73.4439 215.859 73.5987 215.619 73.701 215.392C73.8033 215.165 73.8544 214.923 73.8544 214.668C73.8544 214.378 73.7862 214.128 73.6499 213.918C73.5135 213.705 73.3274 213.541 73.0916 213.428C72.8558 213.311 72.5902 213.253 72.2947 213.253C71.9822 213.253 71.7095 213.317 71.4766 213.445C71.2436 213.572 71.0646 213.753 70.9396 213.986C70.8146 214.219 70.7521 214.491 70.7521 214.804H69.495C69.495 214.273 69.6172 213.808 69.8615 213.411C70.1058 213.013 70.4411 212.705 70.8672 212.486C71.2933 212.264 71.7777 212.153 72.3203 212.153C72.8686 212.153 73.3516 212.263 73.7692 212.482C74.1896 212.697 74.5178 212.993 74.7536 213.368C74.9893 213.74 75.1072 214.161 75.1072 214.629C75.1072 214.953 75.0462 215.27 74.924 215.58C74.8047 215.889 74.5959 216.234 74.2976 216.615C73.9993 216.993 73.5845 217.452 73.0533 217.991L71.3189 219.807V219.871H75.2479V221H69.5036ZM80.174 212.273V221H78.853V213.594H78.8018L76.7138 214.957V213.696L78.8913 212.273H80.174Z" fill="#848899"/>
<path d="M93.8778 221.145C93.2045 221.142 92.6293 220.964 92.152 220.612C91.6747 220.26 91.3097 219.747 91.0568 219.074C90.804 218.401 90.6776 217.589 90.6776 216.641C90.6776 215.695 90.804 214.886 91.0568 214.216C91.3125 213.545 91.679 213.034 92.1562 212.682C92.6364 212.33 93.2102 212.153 93.8778 212.153C94.5455 212.153 95.1179 212.331 95.5952 212.686C96.0724 213.038 96.4375 213.55 96.6903 214.22C96.946 214.888 97.0739 215.695 97.0739 216.641C97.0739 217.592 96.9474 218.405 96.6946 219.078C96.4418 219.749 96.0767 220.261 95.5994 220.616C95.1222 220.969 94.5483 221.145 93.8778 221.145ZM93.8778 220.007C94.4688 220.007 94.9304 219.719 95.2628 219.142C95.598 218.565 95.7656 217.732 95.7656 216.641C95.7656 215.916 95.6889 215.304 95.5355 214.804C95.3849 214.301 95.1676 213.92 94.8835 213.662C94.6023 213.401 94.267 213.27 93.8778 213.27C93.2898 213.27 92.8281 213.56 92.4929 214.139C92.1577 214.719 91.9886 215.553 91.9858 216.641C91.9858 217.368 92.0611 217.983 92.2116 218.486C92.3651 218.986 92.5824 219.365 92.8636 219.624C93.1449 219.879 93.483 220.007 93.8778 220.007ZM101.534 221.119C100.924 221.119 100.384 221.014 99.9151 220.804C99.4492 220.594 99.0842 220.304 98.82 219.935C98.5558 219.565 98.4251 219.145 98.4279 218.673C98.4251 218.304 98.5004 217.964 98.6538 217.655C98.81 217.342 99.0217 217.082 99.2887 216.875C99.5558 216.665 99.854 216.531 100.184 216.474V216.423C99.7489 216.318 99.4009 216.085 99.1396 215.724C98.8782 215.364 98.7489 214.949 98.7518 214.48C98.7489 214.034 98.8668 213.636 99.1055 213.287C99.3469 212.935 99.6779 212.658 100.098 212.456C100.519 212.254 100.998 212.153 101.534 212.153C102.066 212.153 102.54 212.256 102.958 212.46C103.378 212.662 103.709 212.939 103.951 213.291C104.192 213.641 104.314 214.037 104.317 214.48C104.314 214.949 104.181 215.364 103.917 215.724C103.652 216.085 103.309 216.318 102.885 216.423V216.474C103.212 216.531 103.506 216.665 103.767 216.875C104.032 217.082 104.242 217.342 104.398 217.655C104.557 217.964 104.638 218.304 104.641 218.673C104.638 219.145 104.505 219.565 104.24 219.935C103.976 220.304 103.61 220.594 103.141 220.804C102.675 221.014 102.14 221.119 101.534 221.119ZM101.534 220.041C101.895 220.041 102.208 219.982 102.472 219.862C102.736 219.74 102.941 219.571 103.086 219.355C103.23 219.136 103.304 218.881 103.307 218.588C103.304 218.284 103.225 218.016 103.069 217.783C102.915 217.55 102.706 217.366 102.442 217.233C102.178 217.099 101.875 217.033 101.534 217.033C101.191 217.033 100.885 217.099 100.618 217.233C100.351 217.366 100.141 217.55 99.9876 217.783C99.8342 218.016 99.7589 218.284 99.7617 218.588C99.7589 218.881 99.8285 219.136 99.9705 219.355C100.115 219.571 100.321 219.74 100.588 219.862C100.855 219.982 101.171 220.041 101.534 220.041ZM101.534 215.98C101.824 215.98 102.081 215.922 102.306 215.805C102.53 215.689 102.706 215.527 102.834 215.32C102.965 215.112 103.032 214.869 103.034 214.591C103.032 214.318 102.966 214.08 102.838 213.875C102.713 213.67 102.539 213.513 102.314 213.402C102.09 213.288 101.83 213.232 101.534 213.232C101.233 213.232 100.969 213.288 100.742 213.402C100.517 213.513 100.343 213.67 100.218 213.875C100.093 214.08 100.032 214.318 100.034 214.591C100.032 214.869 100.094 215.112 100.222 215.32C100.35 215.527 100.526 215.689 100.75 215.805C100.978 215.922 101.239 215.98 101.534 215.98ZM110.041 216.76V217.864H106.172V216.76H110.041ZM111.371 221V220.045L114.324 216.986C114.639 216.653 114.899 216.362 115.104 216.112C115.311 215.859 115.466 215.619 115.568 215.392C115.67 215.165 115.722 214.923 115.722 214.668C115.722 214.378 115.653 214.128 115.517 213.918C115.381 213.705 115.195 213.541 114.959 213.428C114.723 213.311 114.457 213.253 114.162 213.253C113.849 213.253 113.577 213.317 113.344 213.445C113.111 213.572 112.932 213.753 112.807 213.986C112.682 214.219 112.619 214.491 112.619 214.804H111.362C111.362 214.273 111.484 213.808 111.729 213.411C111.973 213.013 112.308 212.705 112.734 212.486C113.161 212.264 113.645 212.153 114.188 212.153C114.736 212.153 115.219 212.263 115.636 212.482C116.057 212.697 116.385 212.993 116.621 213.368C116.857 213.74 116.974 214.161 116.974 214.629C116.974 214.953 116.913 215.27 116.791 215.58C116.672 215.889 116.463 216.234 116.165 216.615C115.866 216.993 115.452 217.452 114.92 217.991L113.186 219.807V219.871H117.115V221H111.371ZM122.041 212.273V221H120.72V213.594H120.669L118.581 214.957V213.696L120.759 212.273H122.041Z" fill="#848899"/>
<path d="M135.878 221.145C135.205 221.142 134.629 220.964 134.152 220.612C133.675 220.26 133.31 219.747 133.057 219.074C132.804 218.401 132.678 217.589 132.678 216.641C132.678 215.695 132.804 214.886 133.057 214.216C133.313 213.545 133.679 213.034 134.156 212.682C134.636 212.33 135.21 212.153 135.878 212.153C136.545 212.153 137.118 212.331 137.595 212.686C138.072 213.038 138.438 213.55 138.69 214.22C138.946 214.888 139.074 215.695 139.074 216.641C139.074 217.592 138.947 218.405 138.695 219.078C138.442 219.749 138.077 220.261 137.599 220.616C137.122 220.969 136.548 221.145 135.878 221.145ZM135.878 220.007C136.469 220.007 136.93 219.719 137.263 219.142C137.598 218.565 137.766 217.732 137.766 216.641C137.766 215.916 137.689 215.304 137.536 214.804C137.385 214.301 137.168 213.92 136.884 213.662C136.602 213.401 136.267 213.27 135.878 213.27C135.29 213.27 134.828 213.56 134.493 214.139C134.158 214.719 133.989 215.553 133.986 216.641C133.986 217.368 134.061 217.983 134.212 218.486C134.365 218.986 134.582 219.365 134.864 219.624C135.145 219.879 135.483 220.007 135.878 220.007ZM143.488 212.153C143.877 212.156 144.26 212.227 144.638 212.366C145.016 212.506 145.357 212.733 145.661 213.048C145.968 213.364 146.212 213.79 146.394 214.327C146.578 214.861 146.672 215.526 146.675 216.321C146.675 217.085 146.598 217.766 146.445 218.362C146.292 218.956 146.071 219.457 145.784 219.866C145.5 220.276 145.155 220.587 144.749 220.8C144.343 221.013 143.885 221.119 143.377 221.119C142.857 221.119 142.395 221.017 141.992 220.812C141.588 220.608 141.26 220.325 141.007 219.964C140.755 219.601 140.597 219.183 140.534 218.712H141.834C141.919 219.087 142.093 219.391 142.354 219.624C142.618 219.854 142.959 219.969 143.377 219.969C144.016 219.969 144.515 219.69 144.873 219.134C145.23 218.574 145.411 217.793 145.414 216.79H145.346C145.198 217.034 145.013 217.244 144.792 217.42C144.573 217.597 144.327 217.733 144.054 217.83C143.782 217.926 143.49 217.974 143.181 217.974C142.678 217.974 142.221 217.851 141.809 217.604C141.397 217.357 141.069 217.017 140.824 216.585C140.58 216.153 140.458 215.661 140.458 215.107C140.458 214.555 140.583 214.055 140.833 213.607C141.086 213.158 141.438 212.803 141.89 212.541C142.344 212.277 142.877 212.148 143.488 212.153ZM143.492 213.261C143.159 213.261 142.86 213.344 142.593 213.509C142.328 213.67 142.12 213.891 141.966 214.169C141.813 214.445 141.736 214.751 141.736 215.089C141.736 215.428 141.81 215.734 141.958 216.01C142.108 216.283 142.313 216.5 142.571 216.662C142.833 216.821 143.131 216.901 143.466 216.901C143.716 216.901 143.949 216.852 144.165 216.756C144.381 216.659 144.57 216.526 144.732 216.355C144.894 216.182 145.02 215.986 145.111 215.767C145.202 215.548 145.248 215.318 145.248 215.077C145.248 214.756 145.171 214.457 145.017 214.182C144.867 213.906 144.659 213.685 144.395 213.517C144.131 213.347 143.83 213.261 143.492 213.261ZM152.088 216.76V217.864H148.219V216.76H152.088ZM153.418 221V220.045L156.371 216.986C156.686 216.653 156.946 216.362 157.151 216.112C157.358 215.859 157.513 215.619 157.615 215.392C157.717 215.165 157.768 214.923 157.768 214.668C157.768 214.378 157.7 214.128 157.564 213.918C157.428 213.705 157.241 213.541 157.006 213.428C156.77 213.311 156.504 213.253 156.209 213.253C155.896 213.253 155.624 213.317 155.391 213.445C155.158 213.572 154.979 213.753 154.854 213.986C154.729 214.219 154.666 214.491 154.666 214.804H153.409C153.409 214.273 153.531 213.808 153.776 213.411C154.02 213.013 154.355 212.705 154.781 212.486C155.207 212.264 155.692 212.153 156.234 212.153C156.783 212.153 157.266 212.263 157.683 212.482C158.104 212.697 158.432 212.993 158.668 213.368C158.903 213.74 159.021 214.161 159.021 214.629C159.021 214.953 158.96 215.27 158.838 215.58C158.719 215.889 158.51 216.234 158.212 216.615C157.913 216.993 157.499 217.452 156.967 217.991L155.233 219.807V219.871H159.162V221H153.418ZM164.088 212.273V221H162.767V213.594H162.716L160.628 214.957V213.696L162.805 212.273H164.088Z" fill="#848899"/>
<path d="M178.151 212.273V221H176.83V213.594H176.778L174.69 214.957V213.696L176.868 212.273H178.151ZM183.55 221.145C182.876 221.142 182.301 220.964 181.824 220.612C181.347 220.26 180.982 219.747 180.729 219.074C180.476 218.401 180.349 217.589 180.349 216.641C180.349 215.695 180.476 214.886 180.729 214.216C180.984 213.545 181.351 213.034 181.828 212.682C182.308 212.33 182.882 212.153 183.55 212.153C184.217 212.153 184.79 212.331 185.267 212.686C185.744 213.038 186.109 213.55 186.362 214.22C186.618 214.888 186.746 215.695 186.746 216.641C186.746 217.592 186.619 218.405 186.366 219.078C186.114 219.749 185.749 220.261 185.271 220.616C184.794 220.969 184.22 221.145 183.55 221.145ZM183.55 220.007C184.141 220.007 184.602 219.719 184.935 219.142C185.27 218.565 185.438 217.732 185.438 216.641C185.438 215.916 185.361 215.304 185.207 214.804C185.057 214.301 184.839 213.92 184.555 213.662C184.274 213.401 183.939 213.27 183.55 213.27C182.962 213.27 182.5 213.56 182.165 214.139C181.83 214.719 181.661 215.553 181.658 216.641C181.658 217.368 181.733 217.983 181.884 218.486C182.037 218.986 182.254 219.365 182.536 219.624C182.817 219.879 183.155 220.007 183.55 220.007ZM192.131 216.76V217.864H188.262V216.76H192.131ZM193.461 221V220.045L196.414 216.986C196.729 216.653 196.989 216.362 197.194 216.112C197.401 215.859 197.556 215.619 197.658 215.392C197.76 215.165 197.811 214.923 197.811 214.668C197.811 214.378 197.743 214.128 197.607 213.918C197.471 213.705 197.284 213.541 197.049 213.428C196.813 213.311 196.547 213.253 196.252 213.253C195.939 213.253 195.667 213.317 195.434 213.445C195.201 213.572 195.022 213.753 194.897 213.986C194.772 214.219 194.709 214.491 194.709 214.804H193.452C193.452 214.273 193.574 213.808 193.819 213.411C194.063 213.013 194.398 212.705 194.824 212.486C195.25 212.264 195.735 212.153 196.277 212.153C196.826 212.153 197.309 212.263 197.726 212.482C198.147 212.697 198.475 212.993 198.711 213.368C198.946 213.74 199.064 214.161 199.064 214.629C199.064 214.953 199.003 215.27 198.881 215.58C198.762 215.889 198.553 216.234 198.255 216.615C197.956 216.993 197.542 217.452 197.01 217.991L195.276 219.807V219.871H199.205V221H193.461ZM204.131 212.273V221H202.81V213.594H202.759L200.671 214.957V213.696L202.848 212.273H204.131Z" fill="#848899"/>
<path d="M218.151 212.273V221H216.83V213.594H216.778L214.69 214.957V213.696L216.868 212.273H218.151ZM223.822 212.273V221H222.501V213.594H222.45L220.362 214.957V213.696L222.54 212.273H223.822ZM230.057 216.76V217.864H226.188V216.76H230.057ZM231.386 221V220.045L234.339 216.986C234.655 216.653 234.915 216.362 235.119 216.112C235.327 215.859 235.482 215.619 235.584 215.392C235.686 215.165 235.737 214.923 235.737 214.668C235.737 214.378 235.669 214.128 235.533 213.918C235.396 213.705 235.21 213.541 234.974 213.428C234.739 213.311 234.473 213.253 234.178 213.253C233.865 213.253 233.592 213.317 233.359 213.445C233.126 213.572 232.947 213.753 232.822 213.986C232.697 214.219 232.635 214.491 232.635 214.804H231.378C231.378 214.273 231.5 213.808 231.744 213.411C231.989 213.013 232.324 212.705 232.75 212.486C233.176 212.264 233.661 212.153 234.203 212.153C234.751 212.153 235.234 212.263 235.652 212.482C236.072 212.697 236.401 212.993 236.636 213.368C236.872 213.74 236.99 214.161 236.99 214.629C236.99 214.953 236.929 215.27 236.807 215.58C236.688 215.889 236.479 216.234 236.18 216.615C235.882 216.993 235.467 217.452 234.936 217.991L233.202 219.807V219.871H237.131V221H231.386ZM242.057 212.273V221H240.736V213.594H240.685L238.597 214.957V213.696L240.774 212.273H242.057Z" fill="#848899"/>
<path d="M256.151 212.273V221H254.83V213.594H254.778L252.69 214.957V213.696L254.868 212.273H256.151ZM258.511 221V220.045L261.464 216.986C261.78 216.653 262.04 216.362 262.244 216.112C262.452 215.859 262.607 215.619 262.709 215.392C262.811 215.165 262.862 214.923 262.862 214.668C262.862 214.378 262.794 214.128 262.658 213.918C262.521 213.705 262.335 213.541 262.099 213.428C261.864 213.311 261.598 213.253 261.303 213.253C260.99 213.253 260.717 213.317 260.484 213.445C260.251 213.572 260.072 213.753 259.947 213.986C259.822 214.219 259.76 214.491 259.76 214.804H258.503C258.503 214.273 258.625 213.808 258.869 213.411C259.114 213.013 259.449 212.705 259.875 212.486C260.301 212.264 260.786 212.153 261.328 212.153C261.876 212.153 262.359 212.263 262.777 212.482C263.197 212.697 263.526 212.993 263.761 213.368C263.997 213.74 264.115 214.161 264.115 214.629C264.115 214.953 264.054 215.27 263.932 215.58C263.813 215.889 263.604 216.234 263.305 216.615C263.007 216.993 262.592 217.452 262.061 217.991L260.327 219.807V219.871H264.256V221H258.511ZM269.744 216.76V217.864H265.875V216.76H269.744ZM271.074 221V220.045L274.027 216.986C274.342 216.653 274.602 216.362 274.807 216.112C275.014 215.859 275.169 215.619 275.271 215.392C275.374 215.165 275.425 214.923 275.425 214.668C275.425 214.378 275.357 214.128 275.22 213.918C275.084 213.705 274.898 213.541 274.662 213.428C274.426 213.311 274.161 213.253 273.865 213.253C273.553 213.253 273.28 213.317 273.047 213.445C272.814 213.572 272.635 213.753 272.51 213.986C272.385 214.219 272.322 214.491 272.322 214.804H271.065C271.065 214.273 271.188 213.808 271.432 213.411C271.676 213.013 272.011 212.705 272.438 212.486C272.864 212.264 273.348 212.153 273.891 212.153C274.439 212.153 274.922 212.263 275.339 212.482C275.76 212.697 276.088 212.993 276.324 213.368C276.56 213.74 276.678 214.161 276.678 214.629C276.678 214.953 276.616 215.27 276.494 215.58C276.375 215.889 276.166 216.234 275.868 216.615C275.57 216.993 275.155 217.452 274.624 217.991L272.889 219.807V219.871H276.818V221H271.074ZM281.744 212.273V221H280.423V213.594H280.372L278.284 214.957V213.696L280.462 212.273H281.744Z" fill="#848899"/>
</svg>
