<svg width="73" height="73" viewBox="0 0 73 73" fill="none" xmlns="http://www.w3.org/2000/svg">
<path d="M0.5 36.5C0.5 16.6178 16.6178 0.5 36.5 0.5C56.3823 0.5 72.5 16.6178 72.5 36.5C72.5 56.3823 56.3823 72.5 36.5 72.5C16.6178 72.5 0.5 56.3823 0.5 36.5Z" fill="black" fill-opacity="0.4"/>
<path d="M46.2793 35.2197L32.7822 26.9712C32.5549 26.8322 32.2946 26.7562 32.0282 26.7512C31.7617 26.7461 31.4988 26.8122 31.2663 26.9425C31.0339 27.0728 30.8404 27.2627 30.7057 27.4926C30.571 27.7226 30.5 27.9842 30.5 28.2507V44.7493C30.5002 45.0157 30.5714 45.2772 30.7061 45.507C30.8408 45.7368 31.0343 45.9266 31.2667 46.0569C31.4991 46.1871 31.7619 46.2532 32.0283 46.2483C32.2946 46.2433 32.5548 46.1676 32.7822 46.0288L46.2793 37.7803C46.4986 37.6462 46.6797 37.458 46.8054 37.2339C46.9311 37.0097 46.9971 36.757 46.9971 36.5C46.9971 36.243 46.9311 35.9903 46.8054 35.7661C46.6797 35.5419 46.4986 35.3538 46.2793 35.2197Z" fill="white"/>
</svg>
