<svg width="14" height="14" viewBox="0 0 14 14" fill="none" xmlns="http://www.w3.org/2000/svg">
<path d="M7.5625 0.8125C7.5625 0.50184 7.31066 0.25 7 0.25C6.68934 0.25 6.4375 0.50184 6.4375 0.8125V6.4375H0.8125C0.50184 6.4375 0.25 6.68934 0.25 7C0.25 7.31066 0.50184 7.5625 0.8125 7.5625H6.4375V13.1875C6.4375 13.4982 6.68934 13.75 7 13.75C7.31066 13.75 7.5625 13.4982 7.5625 13.1875V7.5625H13.1875C13.4982 7.5625 13.75 7.31066 13.75 7C13.75 6.68934 13.4982 6.4375 13.1875 6.4375H7.5625V0.8125Z" fill="white"/>
</svg>
