<svg width="18" height="23" xmlns="http://www.w3.org/2000/svg">

 <g>
  <title>background</title>
  <rect fill="none" id="canvas_background" height="25" width="20" y="-1" x="-1"/>
 </g>
 <g>
  <title>Layer 1</title>
  <path stroke-width="0" id="svg_1" fill="#021b79" d="m8.98116,1.39384c0.29669,0.2967 0.51502,0.6571 0.64168,1.04905c0.38096,-0.20676 0.81086,-0.31789 1.25216,-0.31789c0.6962,0 1.3639,0.27656 1.8562,0.76884c0.4922,0.49229 0.7688,1.15997 0.7688,1.85616l0,3.25329c0.3483,-0.16521 0.7321,-0.25329 1.125,-0.25329c0.6962,0 1.3639,0.27656 1.8562,0.76884c0.4922,0.49229 0.7688,1.15997 0.7688,1.85616l0,3.75c0,2.188 -0.8692,4.2865 -2.4164,5.8336c-1.5471,1.5472 -3.6456,2.4164 -5.8336,2.4164c-2.18804,0 -4.28646,-0.8692 -5.83363,-2.4164c-1.54718,-1.5471 -2.41637,-3.6456 -2.41637,-5.8336l0,-7.875c0,-0.69619 0.27656,-1.36387 0.76884,-1.85616c0.49229,-0.49228 1.15997,-0.76884 1.85616,-0.76884c0.39288,0 0.77668,0.08807 1.125,0.25329l0,-0.62829c0,-0.69619 0.27656,-1.36387 0.76884,-1.85616c0.49229,-0.49228 1.15997,-0.76884 1.85616,-0.76884c0.69619,0 1.36387,0.27656 1.85616,0.76884zm-2.65166,1.06066c0.21098,-0.21097 0.49713,-0.3295 0.7955,-0.3295c0.29837,0 0.58452,0.11853 0.7955,0.3295c0.21097,0.21098 0.3295,0.49713 0.3295,0.7955l0,6.375c0,0.4142 0.33579,0.75 0.75,0.75c0.41421,0 0.75,-0.3358 0.75,-0.75l0,-4.875c0,-0.29837 0.11853,-0.58452 0.3295,-0.7955c0.211,-0.21097 0.4971,-0.3295 0.7955,-0.3295c0.2984,0 0.5845,0.11853 0.7955,0.3295c0.211,0.21098 0.3295,0.49713 0.3295,0.7955l0,6.8129c-0.9152,0.1547 -1.767,0.5901 -2.43198,1.2551c-0.84391,0.8439 -1.31802,1.9885 -1.31802,3.182c0,0.4142 0.33579,0.75 0.75,0.75c0.41421,0 0.75,-0.3358 0.75,-0.75c0,-0.7956 0.3161,-1.5587 0.8787,-2.1213c0.5626,-0.5626 1.3257,-0.8787 2.1213,-0.8787c0.4142,0 0.75,-0.3358 0.75,-0.75l0,-1.875c0,-0.2984 0.1185,-0.58452 0.3295,-0.7955c0.211,-0.21097 0.4971,-0.3295 0.7955,-0.3295c0.2984,0 0.5845,0.11853 0.7955,0.3295c0.211,0.21098 0.3295,0.4971 0.3295,0.7955l0,3.75c0,1.7902 -0.7112,3.5071 -1.977,4.773c-1.2659,1.2658 -2.9828,1.977 -4.773,1.977c-1.79021,0 -3.5071,-0.7112 -4.77297,-1.977c-1.26587,-1.2659 -1.97703,-2.9828 -1.97703,-4.773l0,-7.875c0,-0.29837 0.11853,-0.58452 0.3295,-0.7955c0.21098,-0.21097 0.49713,-0.3295 0.7955,-0.3295c0.29837,0 0.58452,0.11853 0.7955,0.3295c0.21097,0.21098 0.3295,0.49713 0.3295,0.7955l0,4.125c0,0.4142 0.33579,0.75 0.75,0.75c0.41421,0 0.75,-0.3358 0.75,-0.75l0,-7.125c0,-0.29837 0.11853,-0.58452 0.3295,-0.7955z" clip-rule="evenodd" fill-rule="evenodd"/>
 </g>
</svg>