<svg width="18" height="23" viewBox="0 0 18 23" fill="none" xmlns="http://www.w3.org/2000/svg">
<path fill-rule="evenodd" clip-rule="evenodd" d="M8.98116 1.51884C9.27785 1.81554 9.49618 2.17594 9.62284 2.56789C10.0038 2.36113 10.4337 2.25 10.875 2.25C11.5712 2.25 12.2389 2.52656 12.7312 3.01884C13.2234 3.51113 13.5 4.17881 13.5 4.875V8.12829C13.8483 7.96308 14.2321 7.875 14.625 7.875C15.3212 7.875 15.9889 8.15156 16.4812 8.64384C16.9734 9.13613 17.25 9.80381 17.25 10.5V14.25C17.25 16.438 16.3808 18.5365 14.8336 20.0836C13.2865 21.6308 11.188 22.5 9 22.5C6.81196 22.5 4.71354 21.6308 3.16637 20.0836C1.61919 18.5365 0.75 16.438 0.75 14.25V6.375C0.75 5.67881 1.02656 5.01113 1.51884 4.51884C2.01113 4.02656 2.67881 3.75 3.375 3.75C3.76788 3.75 4.15168 3.83807 4.5 4.00329V3.375C4.5 2.67881 4.77656 2.01113 5.26884 1.51884C5.76113 1.02656 6.42881 0.75 7.125 0.75C7.82119 0.75 8.48887 1.02656 8.98116 1.51884ZM6.3295 2.5795C6.54048 2.36853 6.82663 2.25 7.125 2.25C7.42337 2.25 7.70952 2.36853 7.9205 2.5795C8.13147 2.79048 8.25 3.07663 8.25 3.375V9.75C8.25 10.1642 8.58579 10.5 9 10.5C9.41421 10.5 9.75 10.1642 9.75 9.75V4.875C9.75 4.57663 9.86853 4.29048 10.0795 4.0795C10.2905 3.86853 10.5766 3.75 10.875 3.75C11.1734 3.75 11.4595 3.86853 11.6705 4.0795C11.8815 4.29048 12 4.57663 12 4.875V11.6879C11.0848 11.8426 10.233 12.278 9.56802 12.943C8.72411 13.7869 8.25 14.9315 8.25 16.125C8.25 16.5392 8.58579 16.875 9 16.875C9.41421 16.875 9.75 16.5392 9.75 16.125C9.75 15.3294 10.0661 14.5663 10.6287 14.0037C11.1913 13.4411 11.9544 13.125 12.75 13.125C13.1642 13.125 13.5 12.7892 13.5 12.375V10.5C13.5 10.2016 13.6185 9.91548 13.8295 9.7045C14.0405 9.49353 14.3266 9.375 14.625 9.375C14.9234 9.375 15.2095 9.49353 15.4205 9.7045C15.6315 9.91548 15.75 10.2016 15.75 10.5V14.25C15.75 16.0402 15.0388 17.7571 13.773 19.023C12.5071 20.2888 10.7902 21 9 21C7.20979 21 5.4929 20.2888 4.22703 19.023C2.96116 17.7571 2.25 16.0402 2.25 14.25V6.375C2.25 6.07663 2.36853 5.79048 2.5795 5.5795C2.79048 5.36853 3.07663 5.25 3.375 5.25C3.67337 5.25 3.95952 5.36853 4.1705 5.5795C4.38147 5.79048 4.5 6.07663 4.5 6.375V10.5C4.5 10.9142 4.83579 11.25 5.25 11.25C5.66421 11.25 6 10.9142 6 10.5V3.375C6 3.07663 6.11853 2.79048 6.3295 2.5795Z" fill="#848899"/>
</svg>
