<svg width="12" height="10" viewBox="0 0 12 10" fill="none" xmlns="http://www.w3.org/2000/svg">
<path fill-rule="evenodd" clip-rule="evenodd" d="M7.35355 0.146447C7.15829 -0.0488155 6.84171 -0.0488155 6.64645 0.146447C6.45118 0.341709 6.45118 0.658291 6.64645 0.853553L10.2929 4.5H0.5C0.223858 4.5 0 4.72386 0 5C0 5.27614 0.223858 5.5 0.5 5.5H10.2929L6.64645 9.14645C6.45118 9.34171 6.45118 9.65829 6.64645 9.85355C6.84171 10.0488 7.15829 10.0488 7.35355 9.85355L11.8536 5.35355C11.9015 5.30561 11.9377 5.25036 11.9621 5.19139C11.9865 5.13244 12 5.06779 12 5C12 4.93221 11.9865 4.86756 11.9621 4.80861C11.9377 4.74964 11.9015 4.69439 11.8536 4.64645L7.35355 0.146447Z" fill="#0575E6"/>
</svg>
