<svg width="34" height="40" viewBox="0 0 34 40" fill="none" xmlns="http://www.w3.org/2000/svg">
<path d="M11 20C10.1716 20 9.5 20.6716 9.5 21.5C9.5 22.3284 10.1716 23 11 23H23C23.8284 23 24.5 22.3284 24.5 21.5C24.5 20.6716 23.8284 20 23 20H11Z" fill="#0575E6"/>
<path d="M11 26C10.1716 26 9.5 26.6716 9.5 27.5C9.5 28.3284 10.1716 29 11 29H23C23.8284 29 24.5 28.3284 24.5 27.5C24.5 26.6716 23.8284 26 23 26H11Z" fill="#0575E6"/>
<path fill-rule="evenodd" clip-rule="evenodd" d="M3.5 0.5C1.84314 0.5 0.5 1.84315 0.5 3.5V36.5C0.5 38.1569 1.84315 39.5 3.5 39.5H30.5C32.1569 39.5 33.5 38.1569 33.5 36.5V13.1213C33.5 13.0009 33.4928 12.8813 33.4785 12.7629C33.4936 12.6776 33.5015 12.5897 33.5015 12.5C33.5015 11.9914 33.2483 11.5418 32.8611 11.2706C32.7871 11.1761 32.7071 11.0857 32.6213 11L23 1.37868C22.9136 1.29223 22.8224 1.21161 22.7271 1.13705C22.4556 0.751723 22.0072 0.5 21.5 0.5C21.4121 0.5 21.3259 0.507567 21.2421 0.522084C21.1221 0.507445 21.0008 0.5 20.8787 0.5H3.5ZM23 5.62132L28.3787 11H23V5.62132ZM20 12.5V3.5L3.5 3.5V36.5H30.5V14H21.5C20.6716 14 20 13.3284 20 12.5Z" fill="#0575E6"/>
</svg>
