<svg width="16" height="16" viewBox="0 0 16 16" fill="none" xmlns="http://www.w3.org/2000/svg">
<path fill-rule="evenodd" clip-rule="evenodd" d="M13.625 7.15625C13.625 8.74015 13.0557 10.1911 12.1107 11.3156L15.1473 14.3523C15.367 14.572 15.367 14.9281 15.1473 15.1478C14.9277 15.3675 14.5715 15.3675 14.3518 15.1478L11.3151 12.1111C10.1906 13.0559 8.7399 13.625 7.15625 13.625C3.58366 13.625 0.6875 10.7288 0.6875 7.15625C0.6875 3.58366 3.58366 0.6875 7.15625 0.6875C10.7288 0.6875 13.625 3.58366 13.625 7.15625ZM1.8125 7.15625C1.8125 4.20498 4.20498 1.8125 7.15625 1.8125C10.1075 1.8125 12.5 4.20498 12.5 7.15625C12.5 8.63129 11.9024 9.96675 10.936 10.9337L10.9346 10.9351C9.96763 11.9018 8.63158 12.5 7.15625 12.5C4.20498 12.5 1.8125 10.1075 1.8125 7.15625Z" fill="#021B79"/>
</svg>
