<svg width="24" height="19" viewBox="0 0 24 19" fill="none" xmlns="http://www.w3.org/2000/svg">
<path fill-rule="evenodd" clip-rule="evenodd" d="M12.3933 0.361256C12.1522 0.212915 11.8482 0.212915 11.6071 0.361256L1.85711 6.36126C1.57134 6.53712 1.43715 6.88139 1.52854 7.20426C1.61992 7.52712 1.91464 7.75 2.25019 7.75H4.50023V13.75H3.00023C2.58602 13.75 2.25023 14.0858 2.25023 14.5C2.25023 14.9142 2.58602 15.25 3.00023 15.25H21.0002C21.4144 15.25 21.7502 14.9142 21.7502 14.5C21.7502 14.0858 21.4144 13.75 21.0002 13.75H19.5002V7.75H21.7502C22.0857 7.75 22.3805 7.52712 22.4718 7.20426C22.5632 6.88139 22.429 6.53712 22.1433 6.36126L12.3933 0.361256ZM6.00023 13.75V7.75H9.00023V13.75H6.00023ZM19.1004 6.25L12.0002 1.88063L4.89997 6.25H19.1004ZM10.5002 13.75V7.75H13.5002V13.75H10.5002ZM15.0002 13.75V7.75H18.0002V13.75H15.0002Z" fill="#848899"/>
<path d="M1.50023 16.75C1.08602 16.75 0.750229 17.0858 0.750229 17.5C0.750229 17.9142 1.08602 18.25 1.50023 18.25H22.5002C22.9144 18.25 23.2502 17.9142 23.2502 17.5C23.2502 17.0858 22.9144 16.75 22.5002 16.75H1.50023Z" fill="#848899"/>
</svg>
