<svg width="24" height="19" xmlns="http://www.w3.org/2000/svg">

 <g>
  <title>background</title>
  <rect fill="none" id="canvas_background" height="25" width="20" y="-1" x="-1"/>
 </g>
 <g>
  <title>Layer 1</title>
  <path id="svg_1" fill="#021b79" d="m12.3933,0.361256c-0.2411,-0.148341 -0.5451,-0.148341 -0.7862,0l-9.74999,6.000004c-0.28577,0.17586 -0.41996,0.52013 -0.32857,0.843c0.09138,0.32286 0.3861,0.54574 0.72165,0.54574l2.25004,0l0,6l-1.5,0c-0.41421,0 -0.75,0.3358 -0.75,0.75c0,0.4142 0.33579,0.75 0.75,0.75l17.99997,0c0.4142,0 0.75,-0.3358 0.75,-0.75c0,-0.4142 -0.3358,-0.75 -0.75,-0.75l-1.5,0l0,-6l2.25,0c0.3355,0 0.6303,-0.22288 0.7216,-0.54574c0.0914,-0.32287 -0.0428,-0.66714 -0.3285,-0.843l-9.75,-6.000004zm-6.39307,13.388744l0,-6l3,0l0,6l-3,0zm13.10017,-7.5l-7.1002,-4.36937l-7.10023,4.36937l14.20043,0zm-8.6002,7.5l0,-6l3,0l0,6l-3,0zm4.5,0l0,-6l3,0l0,6l-3,0z" clip-rule="evenodd" fill-rule="evenodd"/>
  <path id="svg_2" fill="#021b79" d="m1.50023,16.75c-0.41421,0 -0.750001,0.3358 -0.750001,0.75c0,0.4142 0.335791,0.75 0.750001,0.75l20.99997,0c0.4142,0 0.75,-0.3358 0.75,-0.75c0,-0.4142 -0.3358,-0.75 -0.75,-0.75l-20.99997,0z"/>
 </g>
</svg>