<svg width="32" height="32" viewBox="0 0 32 32" fill="none" xmlns="http://www.w3.org/2000/svg">
<path fill-rule="evenodd" clip-rule="evenodd" d="M16.0001 26.6665C21.8911 26.6665 26.6667 21.8909 26.6667 15.9998C26.6667 10.1088 21.8911 5.33317 16.0001 5.33317C10.109 5.33317 5.33341 10.1088 5.33341 15.9998C5.33341 21.8909 10.109 26.6665 16.0001 26.6665ZM16.0001 29.3332C23.3639 29.3332 29.3334 23.3636 29.3334 15.9998C29.3334 8.63604 23.3639 2.6665 16.0001 2.6665C8.63628 2.6665 2.66675 8.63604 2.66675 15.9998C2.66675 23.3636 8.63628 29.3332 16.0001 29.3332Z" fill="white"/>
<path d="M20 16C20 18.2091 18.2091 20 16 20C13.7909 20 12 18.2091 12 16C12 13.7909 13.7909 12 16 12C18.2091 12 20 13.7909 20 16Z" fill="white"/>
</svg>
