<svg width="18" height="20" xmlns="http://www.w3.org/2000/svg">

 <g>
  <title>background</title>
  <rect fill="none" id="canvas_background" height="25" width="20" y="-1" x="-1"/>
 </g>
 <g>
  <title>Layer 1</title>
  <path id="svg_1" fill="#021b79" d="m12.1553,10.9053c0.2929,-0.2929 0.2929,-0.7677 0,-1.06063c-0.2929,-0.29289 -0.7677,-0.29289 -1.0606,0l-3.2197,3.21963l-1.71967,-1.7196c-0.29289,-0.2929 -0.76777,-0.2929 -1.06066,0c-0.29289,0.2929 -0.29289,0.7677 0,1.0606l2.25,2.25c0.29289,0.2929 0.76777,0.2929 1.06066,0l3.74997,-3.75z"/>
  <path id="svg_2" fill="#021b79" d="m2.25,0.25c-0.82843,0 -1.5,0.671574 -1.5,1.5l0,16.5c0,0.8284 0.67157,1.5 1.5,1.5l13.5,0c0.8284,0 1.5,-0.6716 1.5,-1.5l0,-11.68934c0,-0.0602 -0.0036,-0.12002 -0.0107,-0.17919c0.0075,-0.04268 0.0114,-0.08662 0.0114,-0.13147c0,-0.25432 -0.1265,-0.47908 -0.3201,-0.6147c-0.0371,-0.04723 -0.0771,-0.09243 -0.1199,-0.1353l-4.8107,-4.81066c-0.0432,-0.043224 -0.0888,-0.083537 -0.1365,-0.120814c-0.1357,-0.192665 -0.3599,-0.318526 -0.6135,-0.318526c-0.044,0 -0.0871,0.003783 -0.1289,0.011042c-0.06,-0.007319 -0.1207,-0.011042 -0.1818,-0.011042l-8.6893,0zm9.75,2.56066l2.6893,2.68934l-2.6893,0l0,-2.68934zm-1.5,3.43934l0,-4.5l-8.25,0l0,16.5l13.5,0l0,-11.25l-4.5,0c-0.4142,0 -0.75,-0.33579 -0.75,-0.75z" clip-rule="evenodd" fill-rule="evenodd"/>
 </g>
</svg>