<svg width="20" height="20" viewBox="0 0 20 20" fill="none" xmlns="http://www.w3.org/2000/svg">
<path d="M13.869 8.5771C14.1187 8.33876 14.1279 7.94314 13.8896 7.69345C13.6513 7.44377 13.2556 7.43456 13.006 7.6729L8.85414 11.636L6.99405 9.86041C6.74436 9.62207 6.34874 9.63126 6.11041 9.88095C5.87207 10.1306 5.88127 10.5263 6.13095 10.7646L8.42259 12.9521C8.6641 13.1826 9.04417 13.1826 9.28569 12.9521L13.869 8.5771Z" fill="#178213"/>
<path fill-rule="evenodd" clip-rule="evenodd" d="M10 1.875C5.51269 1.875 1.875 5.51269 1.875 10C1.875 14.4873 5.51269 18.125 10 18.125C14.4873 18.125 18.125 14.4873 18.125 10C18.125 5.51269 14.4873 1.875 10 1.875ZM3.125 10C3.125 6.20304 6.20304 3.125 10 3.125C13.797 3.125 16.875 6.20304 16.875 10C16.875 13.797 13.797 16.875 10 16.875C6.20304 16.875 3.125 13.797 3.125 10Z" fill="#178213"/>
</svg>
