<svg width="10" height="14" viewBox="0 0 10 14" fill="none" xmlns="http://www.w3.org/2000/svg">
<path d="M9.2585 4.20294L5.28123 0.119593C5.20664 0.0430186 5.10548 0 5 0C4.89452 0 4.79336 0.0430186 4.71877 0.119593L0.7415 4.20294C0.685874 4.26004 0.647992 4.3328 0.632644 4.41201C0.617296 4.49122 0.625171 4.57332 0.655274 4.64793C0.685377 4.72255 0.736355 4.78632 0.801762 4.83119C0.867169 4.87606 0.944066 4.9 1.02273 4.9H8.97727C9.05593 4.9 9.13283 4.87606 9.19824 4.83119C9.26365 4.78632 9.31462 4.72255 9.34473 4.64793C9.37483 4.57332 9.3827 4.49122 9.36736 4.41201C9.35201 4.3328 9.31413 4.26004 9.2585 4.20294Z" fill="#848899"/>
<path d="M9.2585 9.79706L5.28123 13.8804C5.20664 13.957 5.10548 14 5 14C4.89452 14 4.79336 13.957 4.71877 13.8804L0.7415 9.79706C0.685874 9.73996 0.647992 9.6672 0.632644 9.58799C0.617296 9.50878 0.625171 9.42668 0.655274 9.35207C0.685377 9.27745 0.736355 9.21368 0.801762 9.16881C0.867169 9.12394 0.944066 9.1 1.02273 9.1H8.97727C9.05593 9.1 9.13283 9.12394 9.19824 9.16881C9.26365 9.21368 9.31462 9.27745 9.34473 9.35207C9.37483 9.42668 9.3827 9.50878 9.36736 9.58799C9.35201 9.6672 9.31413 9.73996 9.2585 9.79706Z" fill="#848899"/>
</svg>
