<svg width="18" height="20" viewBox="0 0 18 20" fill="none" xmlns="http://www.w3.org/2000/svg">
<path d="M5.24988 0.5C4.83566 0.5 4.49988 0.835786 4.49988 1.25C4.49988 1.66421 4.83566 2 5.24988 2H12.7499C13.1641 2 13.4999 1.66421 13.4999 1.25C13.4999 0.835786 13.1641 0.5 12.7499 0.5H5.24988Z" fill="#00073A"/>
<path fill-rule="evenodd" clip-rule="evenodd" d="M17.2495 3.5L2.25242 3.5L2.24988 3.5L2.24733 3.5L0.749512 3.5C0.335298 3.50001 -0.000488281 3.83579 -0.000488281 4.25001C-0.000488281 4.66422 0.335298 5 0.749512 5L1.49988 5V18.5C1.49988 18.8978 1.65791 19.2794 1.93922 19.5607C2.22052 19.842 2.60205 20 2.99988 20H14.9999C15.3977 20 15.7792 19.842 16.0605 19.5607C16.3418 19.2794 16.4999 18.8978 16.4999 18.5V5L17.2495 5C17.6637 5 17.9995 4.66421 17.9995 4.25C17.9995 3.83579 17.6637 3.5 17.2495 3.5ZM2.99988 5L14.9999 5V18.5H2.99988V5Z" fill="#00073A"/>
</svg>
