<svg width="12" height="12" viewBox="0 0 12 12" fill="none" xmlns="http://www.w3.org/2000/svg">
<path d="M7.76516 4.76517C7.91161 4.61872 7.91161 4.38128 7.76516 4.23483C7.61872 4.08839 7.38128 4.08839 7.23484 4.23483L7.76516 4.76517ZM4.23483 7.23484C4.08839 7.38128 4.08839 7.61872 4.23483 7.76516C4.38128 7.91161 4.61872 7.91161 4.76517 7.76516L4.23483 7.23484ZM7.23484 7.76516C7.38128 7.91161 7.61872 7.91161 7.76516 7.76516C7.91161 7.61872 7.91161 7.38128 7.76516 7.23484L7.23484 7.76516ZM4.76517 4.23483C4.61872 4.08839 4.38128 4.08839 4.23483 4.23483C4.08839 4.38128 4.08839 4.61872 4.23483 4.76517L4.76517 4.23483ZM10.125 6C10.125 8.27817 8.27817 10.125 6 10.125V10.875C8.69239 10.875 10.875 8.69239 10.875 6H10.125ZM6 10.125C3.72183 10.125 1.875 8.27817 1.875 6H1.125C1.125 8.69239 3.30761 10.875 6 10.875V10.125ZM1.875 6C1.875 3.72183 3.72183 1.875 6 1.875V1.125C3.30761 1.125 1.125 3.30761 1.125 6H1.875ZM6 1.875C8.27817 1.875 10.125 3.72183 10.125 6H10.875C10.875 3.30761 8.69239 1.125 6 1.125V1.875ZM7.23484 4.23483L4.23483 7.23484L4.76517 7.76516L7.76516 4.76517L7.23484 4.23483ZM7.76516 7.23484L4.76517 4.23483L4.23483 4.76517L7.23484 7.76516L7.76516 7.23484Z" fill="#932F16"/>
</svg>
