<svg width="22" height="18" viewBox="0 0 22 18" fill="none" xmlns="http://www.w3.org/2000/svg">
<path fill-rule="evenodd" clip-rule="evenodd" d="M10.2706 8.1875C10.2706 9.15819 9.84502 10.0295 9.17031 10.625C9.84502 11.2205 10.2706 12.0918 10.2706 13.0625C10.2706 13.5112 9.9068 13.875 9.45807 13.875C9.00934 13.875 8.64557 13.5112 8.64557 13.0625C8.64557 12.165 7.91804 11.4375 7.02058 11.4375C6.12311 11.4375 5.39557 12.165 5.39557 13.0625C5.39557 13.5112 5.0318 13.875 4.58307 13.875C4.13434 13.875 3.77057 13.5112 3.77057 13.0625C3.77057 12.0918 4.19612 11.2205 4.87084 10.625C4.19613 10.0295 3.77058 9.15818 3.77058 8.1875C3.77058 6.39257 5.22565 4.93749 7.02058 4.93749C8.8155 4.93749 10.2706 6.39257 10.2706 8.1875ZM5.39558 8.1875C5.39558 7.29003 6.12311 6.56249 7.02058 6.56249C7.91804 6.56249 8.64558 7.29003 8.64558 8.1875C8.64558 9.08496 7.91804 9.8125 7.02058 9.8125C6.12311 9.8125 5.39558 9.08496 5.39558 8.1875Z" fill="#021B79"/>
<path d="M13.1041 6.56249C12.6554 6.56249 12.2916 6.92626 12.2916 7.375C12.2916 7.82373 12.6554 8.1875 13.1041 8.1875H17.1666C17.6154 8.1875 17.9791 7.82373 17.9791 7.375C17.9791 6.92626 17.6154 6.56249 17.1666 6.56249H13.1041Z" fill="#021B79"/>
<path d="M13.1041 9.8125C12.6554 9.8125 12.2916 10.1763 12.2916 10.625C12.2916 11.0737 12.6554 11.4375 13.1041 11.4375H17.1666C17.6154 11.4375 17.9791 11.0737 17.9791 10.625C17.9791 10.1763 17.6154 9.8125 17.1666 9.8125H13.1041Z" fill="#021B79"/>
<path fill-rule="evenodd" clip-rule="evenodd" d="M1.72913 0.0625C0.831663 0.0625 0.104126 0.790037 0.104126 1.6875V16.3125C0.104126 17.21 0.831663 17.9375 1.72913 17.9375H19.6041C20.5016 17.9375 21.2291 17.21 21.2291 16.3125V1.6875C21.2291 0.790037 20.5016 0.0625 19.6041 0.0625H1.72913ZM1.72913 1.6875H19.6041V16.3125H1.72913V1.6875Z" fill="#021B79"/>
</svg>
