<svg width="20" height="18" viewBox="0 0 20 18" fill="none" xmlns="http://www.w3.org/2000/svg">
<path fill-rule="evenodd" clip-rule="evenodd" d="M9.63442 8.25C9.63442 9.14602 9.2416 9.95029 8.61878 10.5C9.24159 11.0497 9.63441 11.854 9.63441 12.75C9.63441 13.1642 9.29862 13.5 8.88441 13.5C8.47019 13.5 8.13441 13.1642 8.13441 12.75C8.13441 11.9216 7.46284 11.25 6.63442 11.25C5.80598 11.25 5.13441 11.9216 5.13441 12.75C5.13441 13.1642 4.79862 13.5 4.38441 13.5C3.97019 13.5 3.63441 13.1642 3.63441 12.75C3.63441 11.854 4.02723 11.0497 4.65005 10.5C4.02723 9.95029 3.63442 9.14601 3.63442 8.25C3.63442 6.59314 4.97756 5.25 6.63442 5.25C8.29127 5.25 9.63442 6.59314 9.63442 8.25ZM5.13442 8.25C5.13442 7.42157 5.80599 6.75 6.63442 6.75C7.46284 6.75 8.13442 7.42157 8.13442 8.25C8.13442 9.07842 7.46284 9.75 6.63442 9.75C5.80599 9.75 5.13442 9.07842 5.13442 8.25Z" fill="#848899"/>
<path d="M12.25 6.75C11.8358 6.75 11.5 7.08578 11.5 7.5C11.5 7.91421 11.8358 8.25 12.25 8.25H16C16.4142 8.25 16.75 7.91421 16.75 7.5C16.75 7.08578 16.4142 6.75 16 6.75H12.25Z" fill="#848899"/>
<path d="M12.25 9.75C11.8358 9.75 11.5 10.0858 11.5 10.5C11.5 10.9142 11.8358 11.25 12.25 11.25H16C16.4142 11.25 16.75 10.9142 16.75 10.5C16.75 10.0858 16.4142 9.75 16 9.75H12.25Z" fill="#848899"/>
<path fill-rule="evenodd" clip-rule="evenodd" d="M1.75 0.75C0.921573 0.75 0.25 1.42157 0.25 2.25V15.75C0.25 16.5784 0.921573 17.25 1.75 17.25H18.25C19.0784 17.25 19.75 16.5784 19.75 15.75V2.25C19.75 1.42157 19.0784 0.75 18.25 0.75H1.75ZM1.75 2.25H18.25V15.75H1.75V2.25Z" fill="#848899"/>
</svg>
