<svg width="14" height="14" viewBox="0 0 14 14" fill="none" xmlns="http://www.w3.org/2000/svg">
<path d="M7.83325 4C7.83325 3.72386 7.60939 3.5 7.33325 3.5C7.05711 3.5 6.83325 3.72386 6.83325 4V7.5C6.83325 7.77614 7.05711 8 7.33325 8C7.60939 8 7.83325 7.77614 7.83325 7.5V4Z" fill="#D08000"/>
<path fill-rule="evenodd" clip-rule="evenodd" d="M7.33325 0.5C3.7434 0.5 0.833252 3.41015 0.833252 7C0.833252 10.5899 3.7434 13.5 7.33325 13.5C10.9231 13.5 13.8333 10.5899 13.8333 7C13.8333 3.41015 10.9231 0.5 7.33325 0.5ZM1.83325 7C1.83325 3.96243 4.29569 1.5 7.33325 1.5C10.3708 1.5 12.8333 3.96243 12.8333 7C12.8333 10.0376 10.3708 12.5 7.33325 12.5C4.29569 12.5 1.83325 10.0376 1.83325 7Z" fill="#D08000"/>
<path d="M8.08325 9.75C8.08325 10.1642 7.74747 10.5 7.33325 10.5C6.91904 10.5 6.58325 10.1642 6.58325 9.75C6.58325 9.33579 6.91904 9 7.33325 9C7.74747 9 8.08325 9.33579 8.08325 9.75Z" fill="#D08000"/>
</svg>
