<svg width="20" height="20" viewBox="0 0 20 20" fill="none" xmlns="http://www.w3.org/2000/svg">
<path d="M10.625 6.25C10.625 5.90482 10.3452 5.625 10 5.625C9.65482 5.625 9.375 5.90482 9.375 6.25V10.625C9.375 10.9702 9.65482 11.25 10 11.25C10.3452 11.25 10.625 10.9702 10.625 10.625V6.25Z" fill="#932F16"/>
<path fill-rule="evenodd" clip-rule="evenodd" d="M10 1.875C5.51269 1.875 1.875 5.51269 1.875 10C1.875 14.4873 5.51269 18.125 10 18.125C14.4873 18.125 18.125 14.4873 18.125 10C18.125 5.51269 14.4873 1.875 10 1.875ZM3.125 10C3.125 6.20304 6.20304 3.125 10 3.125C13.797 3.125 16.875 6.20304 16.875 10C16.875 13.797 13.797 16.875 10 16.875C6.20304 16.875 3.125 13.797 3.125 10Z" fill="#932F16"/>
<path d="M10.9375 13.4375C10.9375 13.9553 10.5178 14.375 10 14.375C9.48223 14.375 9.0625 13.9553 9.0625 13.4375C9.0625 12.9197 9.48223 12.5 10 12.5C10.5178 12.5 10.9375 12.9197 10.9375 13.4375Z" fill="#932F16"/>
</svg>
